<svg width="24" height="24" viewBox="0 0 24 24" fill="none" xmlns="http://www.w3.org/2000/svg">
<path fill-rule="evenodd" clip-rule="evenodd" d="M17.5508 6.02496C17.7708 6.05639 17.9436 6.22924 17.9751 6.44922L18.8589 12.6364C18.9269 13.1121 18.3502 13.4004 18.0104 13.0607L16.5962 11.6465C16.4009 11.4512 16.0843 11.4512 15.8891 11.6465C15.6938 11.8417 15.6938 12.1583 15.8891 12.3536L17.3033 13.7678C18.3226 14.7871 20.0527 13.922 19.8489 12.495L18.965 6.3078C18.8707 5.64784 18.3522 5.12929 17.6922 5.03501L11.505 4.15113C10.078 3.94727 9.21292 5.6774 10.2322 6.69671L13.0607 9.52514C13.2559 9.7204 13.2559 10.037 13.0607 10.2322L5.28248 18.0104C5.08722 18.2057 5.08722 18.5223 5.28248 18.7175C5.47775 18.9128 5.79433 18.9128 5.98959 18.7175L13.7678 10.9394C14.3536 10.3536 14.3536 9.40382 13.7678 8.81803L10.9393 5.98961C10.5996 5.64984 10.8879 5.07312 11.3636 5.14108L17.5508 6.02496Z" fill="black"/>
</svg>
