<svg width="24" height="24" viewBox="0 0 24 24" fill="none" xmlns="http://www.w3.org/2000/svg">
<path fill-rule="evenodd" clip-rule="evenodd" d="M3.5 13L3.5 16C3.5 16.8284 4.17157 17.5 5 17.5L19 17.5C19.8284 17.5 20.5 16.8284 20.5 16L20.5 8C20.5 7.17157 19.8284 6.5 19 6.5L5 6.5C4.17157 6.5 3.5 7.17157 3.5 8L3.5 9.5L18 9.5C18.2761 9.5 18.5 9.72386 18.5 10C18.5 10.2761 18.2761 10.5 18 10.5L3 10.5C2.72386 10.5 2.5 10.2761 2.5 10L2.5 8C2.5 6.61929 3.61929 5.5 5 5.5L19 5.5C20.3807 5.5 21.5 6.61929 21.5 8L21.5 16C21.5 17.3807 20.3807 18.5 19 18.5L5 18.5C3.61929 18.5 2.5 17.3807 2.5 16L2.5 13C2.5 12.7239 2.72386 12.5 3 12.5C3.27614 12.5 3.5 12.7239 3.5 13Z" fill="black"/>
</svg>
