<svg width="24" height="24" viewBox="0 0 24 24" fill="none" xmlns="http://www.w3.org/2000/svg">
<path fill-rule="evenodd" clip-rule="evenodd" d="M14.5 4.5C11.1863 4.5 8.5 7.18629 8.5 10.5C8.5 10.7761 8.27614 11 8 11C7.72386 11 7.5 10.7761 7.5 10.5C7.5 6.63401 10.634 3.5 14.5 3.5C18.366 3.5 21.5 6.63401 21.5 10.5C21.5 14.366 18.366 17.5 14.5 17.5C12.7668 17.5 11.1799 16.8695 9.95761 15.8262L3.28315 20.4121C3.05555 20.5685 2.74428 20.5107 2.5879 20.2831C2.43152 20.0555 2.48926 19.7443 2.71685 19.5879L9.71685 14.7783C9.91227 14.6441 10.1751 14.6655 10.3462 14.8297C11.4247 15.8647 12.8876 16.5 14.5 16.5C17.8137 16.5 20.5 13.8137 20.5 10.5C20.5 7.18629 17.8137 4.5 14.5 4.5Z" fill="black"/>
</svg>
