<svg width="24" height="24" viewBox="0 0 24 24" fill="none" xmlns="http://www.w3.org/2000/svg">
<path fill-rule="evenodd" clip-rule="evenodd" d="M20.4681 10.1759C20.3948 10.3709 20.2083 10.5 20 10.5L15.0532 10.5C14.777 10.5 14.5532 10.2761 14.5532 10C14.5532 9.72386 14.777 9.5 15.0532 9.5L18.6693 9.5L12 3.66438L5.33072 9.5L9 9.5C9.27614 9.5 9.5 9.72386 9.5 10C9.5 12.0117 9.37529 14.5639 8.79585 16.7529C8.44764 18.0684 7.91586 19.3219 7.09604 20.2312C8.16729 19.9754 9.33315 19.5259 10.3754 18.8352C12.152 17.6579 13.5532 15.7956 13.5532 12.975C13.5532 12.6989 13.777 12.475 14.0532 12.475C14.3293 12.475 14.5532 12.6989 14.5532 12.975C14.5532 16.1931 12.9278 18.3433 10.9278 19.6688C8.94841 20.9806 6.58659 21.5 5 21.5C4.75065 21.5 4.53942 21.3163 4.50483 21.0694C4.47025 20.8224 4.62289 20.5877 4.86264 20.5192C6.34116 20.0968 7.27553 18.5885 7.82915 16.4971C8.32979 14.6057 8.47652 12.3888 8.49729 10.5L4 10.5C3.7917 10.5 3.60521 10.3709 3.53195 10.1759C3.45868 9.98087 3.51398 9.76088 3.67075 9.62371L11.6707 2.62371C11.8593 2.45876 12.1407 2.45876 12.3293 2.62371L20.3293 9.62371C20.486 9.76088 20.5413 9.98087 20.4681 10.1759Z" fill="black"/>
</svg>
