<svg width="24" height="24" viewBox="0 0 24 24" fill="none" xmlns="http://www.w3.org/2000/svg">
<path fill-rule="evenodd" clip-rule="evenodd" d="M12.4358 5.7946C12.2446 5.45478 11.7554 5.45478 11.5642 5.7946L5.0355 17.4012C4.79382 17.8308 5.25398 18.314 5.69489 18.0935L8.77639 16.5528C9.02338 16.4293 9.32371 16.5294 9.44721 16.7764C9.5707 17.0234 9.47059 17.3237 9.2236 17.4472L6.14211 18.988C4.81935 19.6493 3.43889 18.1999 4.16392 16.9109L10.6926 5.30434C11.2661 4.28487 12.7339 4.28486 13.3074 5.30434L19.8361 16.9109C20.5611 18.1999 19.1806 19.6493 17.8579 18.988L14.7764 17.4472C14.5294 17.3237 14.4293 17.0234 14.5528 16.7764C14.6763 16.5294 14.9766 16.4293 15.2236 16.5528L18.3051 18.0935C18.746 18.314 19.2062 17.8308 18.9645 17.4012L12.4358 5.7946Z" fill="black"/>
</svg>
