<svg width="24" height="24" viewBox="0 0 24 24" fill="none" xmlns="http://www.w3.org/2000/svg">
<path fill-rule="evenodd" clip-rule="evenodd" d="M3.5 8L3.5 16C3.5 16.8284 4.17157 17.5 5 17.5L19 17.5C19.8284 17.5 20.5 16.8284 20.5 16L20.5 10C20.5 9.17157 19.8284 8.5 19 8.5L12.4142 8.5C12.0164 8.5 11.6349 8.34197 11.3536 8.06066L9.93934 6.64645C9.84557 6.55268 9.71839 6.5 9.58579 6.5L5 6.5C4.72386 6.5 4.5 6.27614 4.5 6C4.5 5.72386 4.72386 5.5 5 5.5L9.58579 5.5C9.98361 5.5 10.3651 5.65803 10.6464 5.93934L12.0607 7.35355C12.1544 7.44732 12.2816 7.5 12.4142 7.5L19 7.5C20.3807 7.5 21.5 8.61929 21.5 10L21.5 16C21.5 17.3807 20.3807 18.5 19 18.5L5 18.5C3.61929 18.5 2.5 17.3807 2.5 16L2.5 8C2.5 7.72386 2.72386 7.5 3 7.5C3.27614 7.5 3.5 7.72386 3.5 8Z" fill="black"/>
</svg>
