<svg width="24" height="24" viewBox="0 0 24 24" fill="none" xmlns="http://www.w3.org/2000/svg">
<path fill-rule="evenodd" clip-rule="evenodd" d="M7.35355 5.64645C7.15828 5.45118 6.8417 5.45118 6.64644 5.64645L2.64644 9.64645C2.45118 9.84171 2.45118 10.1583 2.64644 10.3536L6.64644 14.3536C6.8417 14.5488 7.15828 14.5488 7.35355 14.3536C7.54881 14.1583 7.54881 13.8417 7.35355 13.6464L4.2071 10.5H15C15.974 10.5 17.3904 10.624 18.5448 11.1435C19.1166 11.4008 19.6023 11.7454 19.9444 12.1994C20.2817 12.6469 20.5 13.2274 20.5 14C20.5 14.7874 20.3045 15.3782 20.0109 15.8284C19.7152 16.2818 19.302 16.62 18.8285 16.8706C17.8688 17.3787 16.7123 17.5 16 17.5C15.7239 17.5 15.5 17.7239 15.5 18C15.5 18.2761 15.7239 18.5 16 18.5C16.7877 18.5 18.1311 18.3713 19.2964 17.7544C19.8855 17.4425 20.441 16.9994 20.8485 16.3747C21.2579 15.7468 21.5 14.9626 21.5 14C21.5 13.0226 21.2183 12.2281 20.743 11.5975C20.2726 10.9733 19.6334 10.5367 18.9552 10.2315C17.6095 9.62601 16.026 9.5 15 9.5H4.2071L7.35355 6.35355C7.54881 6.15829 7.54881 5.84171 7.35355 5.64645Z" fill="black"/>
</svg>
