<svg width="24" height="24" viewBox="0 0 24 24" fill="none" xmlns="http://www.w3.org/2000/svg">
<path fill-rule="evenodd" clip-rule="evenodd" d="M7.40381 5.28248C6.81802 4.69669 5.86827 4.69669 5.28249 5.28248C4.6967 5.86827 4.6967 6.81801 5.28249 7.4038L9.52513 11.6464C9.72039 11.8417 9.72039 12.1583 9.52513 12.3535L5.28249 16.5962C4.6967 17.182 4.6967 18.1317 5.28249 18.7175C5.86827 19.3033 6.81802 19.3033 7.40381 18.7175L11.6464 14.4749C11.8417 14.2796 12.1583 14.2796 12.3536 14.4749L16.5962 18.7175C17.182 19.3033 18.1317 19.3033 18.7175 18.7175C19.3033 18.1317 19.3033 17.182 18.7175 16.5962L14.4749 12.3535C14.2796 12.1583 14.2796 11.8417 14.4749 11.6464L18.7175 7.4038C19.3033 6.81801 19.3033 5.86827 18.7175 5.28248C18.1317 4.69669 17.182 4.69669 16.5962 5.28248L12.3536 9.52512C12.1583 9.72038 11.8417 9.72038 11.6464 9.52512C11.4512 9.32986 11.4512 9.01328 11.6464 8.81801L15.8891 4.57537C16.8654 3.59906 18.4483 3.59906 19.4246 4.57537C20.4009 5.55168 20.4009 7.1346 19.4246 8.11091L15.5355 12L19.4246 15.8891C20.4009 16.8654 20.4009 18.4483 19.4246 19.4246C18.4483 20.4009 16.8654 20.4009 15.8891 19.4246L12 15.5355L8.11091 19.4246C7.1346 20.4009 5.55169 20.4009 4.57538 19.4246C3.59907 18.4483 3.59907 16.8654 4.57538 15.8891L8.46447 12L4.57538 8.11091C3.59907 7.1346 3.59907 5.55168 4.57538 4.57537C5.55169 3.59906 7.1346 3.59906 8.11091 4.57537L10.2322 6.69669C10.4275 6.89196 10.4275 7.20854 10.2322 7.4038C10.037 7.59906 9.72039 7.59906 9.52513 7.4038L7.40381 5.28248Z" fill="black"/>
</svg>
