<svg width="24" height="24" viewBox="0 0 24 24" fill="none" xmlns="http://www.w3.org/2000/svg">
<path fill-rule="evenodd" clip-rule="evenodd" d="M8.65452 3.51471C8.4576 3.55073 8.21631 3.66311 7.94342 3.95005C7.67121 4.23628 7.55623 4.49822 7.51706 4.72258C7.47726 4.95064 7.50969 5.17598 7.58792 5.3933C7.74972 5.84278 8.08446 6.19665 8.21296 6.32397L8.21863 6.32959L11.9333 10.2527L11.2072 10.9403L7.50333 7.02858C7.34604 6.87224 6.88464 6.39213 6.64702 5.73199C6.52403 5.39033 6.45586 4.98664 6.53196 4.55064C6.6087 4.11093 6.82614 3.67378 7.21879 3.26091C7.61079 2.84873 8.03437 2.61154 8.47462 2.53103C8.91157 2.45111 9.31619 2.5344 9.65876 2.67848C10.31 2.9524 10.8126 3.48119 11.0338 3.71398C11.038 3.71842 11.0421 3.72274 11.0461 3.72696L16.365 9.31983C17.1083 10.1013 17.5 11.037 17.5 11.9947C17.5 12.9525 17.1083 13.8882 16.365 14.6697C15.5347 15.5429 14.7326 16.3717 14.0022 17.1266C12.7281 18.4433 11.6718 19.5349 11.0632 20.2437C10.8322 20.5127 10.3243 21.0575 9.65428 21.3317C9.30922 21.4729 8.90425 21.5495 8.46877 21.4645C8.03093 21.379 7.60948 21.1395 7.2188 20.7286C6.82619 20.3158 6.60748 19.8773 6.53377 19.4316C6.46068 18.9897 6.53625 18.5785 6.67055 18.2255C6.92815 17.5483 7.42858 17.0223 7.65121 16.7884L11.208 13.0484L11.9326 13.7375L8.38667 17.4661C8.16025 17.7042 7.78657 18.1042 7.6052 18.581C7.51788 18.8106 7.48264 19.0403 7.52036 19.2684C7.55746 19.4927 7.67118 19.7532 7.94343 20.0395C8.21761 20.3278 8.46102 20.4441 8.66034 20.483C8.86202 20.5224 9.06651 20.4918 9.2755 20.4062C9.71354 20.2269 10.0922 19.8396 10.3045 19.5923C10.9316 18.8619 12.0256 17.7312 13.3204 16.393C14.0462 15.6427 14.8352 14.8273 15.6404 13.9806C16.2269 13.3639 16.5 12.6683 16.5 11.9947C16.5 11.3212 16.2269 10.6256 15.6404 10.009L10.3215 4.4161C10.0927 4.17553 9.71549 3.78719 9.27106 3.60027C9.05958 3.51132 8.85473 3.47809 8.65452 3.51471Z" fill="black"/>
</svg>
