<svg width="24" height="24" viewBox="0 0 24 24" fill="none" xmlns="http://www.w3.org/2000/svg">
<path fill-rule="evenodd" clip-rule="evenodd" d="M20.4744 5.28448C20.6004 4.86464 20.1896 4.37506 19.6315 4.52691L5.13126 8.47191C4.86481 8.54441 4.59003 8.38717 4.51754 8.12071C4.44505 7.85426 4.60228 7.57948 4.86874 7.50699L19.3689 3.56198C20.5842 3.23135 21.813 4.30301 21.4322 5.57187L17.0036 20.3316C16.7454 21.1922 15.9535 21.55 15.2562 21.4942C14.5583 21.4384 13.8341 20.9575 13.7296 20.062L12.8301 12.3535C12.7984 12.0814 12.566 11.8389 12.2357 11.8039L4.94739 11.0328C4.67279 11.0037 4.47372 10.7576 4.50278 10.483C4.53183 10.2084 4.778 10.0093 5.05261 10.0384L12.3409 10.8095C13.1034 10.8902 13.7337 11.4691 13.8234 12.2376L14.7229 19.9461C14.7607 20.2702 15.0087 20.4712 15.3359 20.4974C15.6638 20.5236 15.95 20.3636 16.0458 20.0442L20.4744 5.28448Z" fill="black"/>
</svg>
