<svg width="24" height="24" viewBox="0 0 24 24" fill="none" xmlns="http://www.w3.org/2000/svg">
<path fill-rule="evenodd" clip-rule="evenodd" d="M4.78792 2.54722C4.59729 2.63651 4.48299 2.83564 4.50205 3.04528L5.00205 8.54528C5.02547 8.80282 5.2414 9.00001 5.5 9.00001H10.5C10.7035 9.00001 10.8867 8.87665 10.9633 8.68806C11.0398 8.49947 10.9944 8.28331 10.8485 8.14146L8.84465 6.19394C9.80338 5.74866 10.8721 5.50001 12 5.50001C16.1421 5.50001 19.5 8.85788 19.5 13C19.5 17.1421 16.1421 20.5 12 20.5C7.85786 20.5 4.5 17.1421 4.5 13C4.5 12.7239 4.27614 12.5 4 12.5C3.72386 12.5 3.5 12.7239 3.5 13C3.5 17.6944 7.30558 21.5 12 21.5C16.6944 21.5 20.5 17.6944 20.5 13C20.5 8.30559 16.6944 4.50001 12 4.50001C10.4526 4.50001 9.00038 4.91395 7.74964 5.63747C7.61406 5.71589 7.52307 5.85332 7.5038 6.00875C7.48453 6.16418 7.5392 6.31967 7.65152 6.42883L9.26814 8.00001H5.95661L5.62298 4.3301L6.14645 4.85357C6.34171 5.04883 6.65829 5.04883 6.85355 4.85357C7.04882 4.65831 7.04882 4.34172 6.85355 4.14646L5.35355 2.64646C5.2047 2.49761 4.97856 2.45793 4.78792 2.54722Z" fill="black"/>
</svg>
