<svg width="24" height="24" viewBox="0 0 24 24" fill="none" xmlns="http://www.w3.org/2000/svg">
<path fill-rule="evenodd" clip-rule="evenodd" d="M5.98957 15.889C5.40378 16.4748 5.40378 17.4246 5.98957 18.0104C6.57535 18.5962 7.5251 18.5962 8.11089 18.0104L18.0104 8.11087C18.5962 7.52509 18.5962 6.57534 18.0104 5.98955C17.4246 5.40377 16.4748 5.40377 15.8891 5.98955L9.5251 12.3535C9.32984 12.5488 9.01326 12.5488 8.81799 12.3535C8.62273 12.1583 8.62273 11.8417 8.81799 11.6464L15.182 5.28245C16.1583 4.30613 17.7412 4.30614 18.7175 5.28245C19.6938 6.25876 19.6938 7.84167 18.7175 8.81798L8.81799 18.7175C7.84168 19.6938 6.25877 19.6938 5.28246 18.7175C4.30615 17.7412 4.30615 16.1583 5.28246 15.1819L6.69667 13.7677C6.89194 13.5725 7.20852 13.5725 7.40378 13.7677C7.59904 13.963 7.59904 14.2796 7.40378 14.4748L5.98957 15.889Z" fill="black"/>
</svg>
