<svg width="24" height="24" viewBox="0 0 24 24" fill="none" xmlns="http://www.w3.org/2000/svg">
<path fill-rule="evenodd" clip-rule="evenodd" d="M18 5.5C18.2761 5.5 18.5 5.72386 18.5 6V15.4338C18.5 15.9607 18.7765 16.449 19.2283 16.72L20.6469 17.5713C21.0818 17.8322 20.8968 18.5 20.3897 18.5H3.61032C3.10321 18.5 2.91823 17.8322 3.35307 17.5713L5.01974 16.5713C5.09744 16.5246 5.18637 16.5 5.27699 16.5H16C16.2761 16.5 16.5 16.2761 16.5 16C16.5 15.7239 16.2761 15.5 16 15.5H5.27699C5.00512 15.5 4.73837 15.5739 4.50524 15.7138L2.83858 16.7138C1.53404 17.4965 2.08899 19.5 3.61032 19.5H20.3897C21.911 19.5 22.466 17.4965 21.1614 16.7138L19.7428 15.8626C19.5922 15.7722 19.5 15.6094 19.5 15.4338V6C19.5 5.17157 18.8284 4.5 18 4.5H6C5.17158 4.5 4.5 5.17157 4.5 6V13C4.5 13.2761 4.72386 13.5 5 13.5C5.27614 13.5 5.5 13.2761 5.5 13V6C5.5 5.72386 5.72386 5.5 6 5.5H18Z" fill="black"/>
</svg>
