<svg width="24" height="24" viewBox="0 0 24 24" fill="none" xmlns="http://www.w3.org/2000/svg">
<path fill-rule="evenodd" clip-rule="evenodd" d="M20 19.5C20.8284 19.5 21.5 18.8284 21.5 18L21.5 7.04464C21.5 5.79642 20.0644 5.09427 19.0791 5.86061L14.1488 9.69529C12.8849 10.6783 11.1151 10.6783 9.85121 9.69529L4.92091 5.86061C3.93562 5.09427 2.5 5.79642 2.5 7.04464L2.5 13C2.5 13.2761 2.72386 13.5 3 13.5C3.27614 13.5 3.5 13.2761 3.5 13L3.5 7.04464C3.5 6.62856 3.97854 6.39452 4.30697 6.64996L9.23727 10.4846C10.8623 11.7485 13.1377 11.7485 14.7627 10.4846L19.693 6.64996C20.0215 6.39452 20.5 6.62856 20.5 7.04464L20.5 18C20.5 18.2761 20.2761 18.5 20 18.5L4 18.5C3.72386 18.5 3.5 18.2761 3.5 18L3.5 17C3.5 16.7239 3.27614 16.5 3 16.5C2.72386 16.5 2.5 16.7239 2.5 17L2.5 18C2.5 18.8284 3.17158 19.5 4 19.5L20 19.5Z" fill="black"/>
</svg>
