<svg width="24" height="24" viewBox="0 0 24 24" fill="none" xmlns="http://www.w3.org/2000/svg">
<path fill-rule="evenodd" clip-rule="evenodd" d="M11.7 20.15C11.8778 20.2833 12.1222 20.2833 12.3 20.15L17.3 16.4C17.6844 16.1117 17.4805 15.5 17 15.5L15 15.5C14.7239 15.5 14.5 15.2761 14.5 15C14.5 14.7239 14.7239 14.5 15 14.5L17 14.5C18.4415 14.5 19.0532 16.3351 17.9 17.2L12.9 20.95C12.3667 21.35 11.6333 21.35 11.1 20.95L6.1 17.2C4.94679 16.3351 5.55849 14.5 7.00001 14.5L11 14.5C11.2761 14.5 11.5 14.2761 11.5 14L11.5 3C11.5 2.72386 11.7239 2.5 12 2.5C12.2761 2.5 12.5 2.72386 12.5 3L12.5 14C12.5 14.8284 11.8284 15.5 11 15.5L7.00001 15.5C6.5195 15.5 6.3156 16.1117 6.70001 16.4L11.7 20.15Z" fill="black"/>
</svg>
