<svg width="24" height="24" viewBox="0 0 24 24" fill="none" xmlns="http://www.w3.org/2000/svg">
<path fill-rule="evenodd" clip-rule="evenodd" d="M11.9746 2.50003C12.1234 2.49853 12.2651 2.56339 12.3612 2.67698C13.133 3.58877 15.6087 5.5 19.0893 5.5C19.2913 5.5 19.4735 5.62158 19.551 5.80815C20.3444 7.71757 20.9283 10.7839 20.0917 13.8083C19.2456 16.8673 16.9615 19.8224 12.1416 21.473C12.0408 21.5075 11.9317 21.509 11.8301 21.4771C10.1089 20.9379 7.80555 19.6972 6.05523 17.6456C4.29252 15.5794 3.09857 12.6968 3.62543 8.93073C3.66369 8.65725 3.9164 8.46656 4.18988 8.50482C4.46336 8.54308 4.65404 8.79579 4.61578 9.06927C4.13235 12.5249 5.2204 15.1262 6.816 16.9965C8.3717 18.8201 10.4172 19.9544 11.9738 20.4727C16.3887 18.9148 18.3831 16.2344 19.1279 13.5417C19.8486 10.936 19.4129 8.26367 18.7472 6.49444C15.5267 6.3896 13.1223 4.82505 11.986 3.73279C11.0858 4.61453 9.82522 5.23399 8.61601 5.65919C7.21138 6.1531 5.80051 6.41079 4.91891 6.49759C4.6441 6.52465 4.39938 6.32381 4.37232 6.04899C4.34527 5.77418 4.54611 5.52946 4.82093 5.50241C5.6321 5.42254 6.96354 5.18023 8.28429 4.71581C9.61791 4.24687 10.8666 3.57693 11.5915 2.6847C11.6854 2.56921 11.8258 2.50152 11.9746 2.50003Z" fill="black"/>
</svg>
