<svg width="24" height="24" viewBox="0 0 24 24" fill="none" xmlns="http://www.w3.org/2000/svg">
<path fill-rule="evenodd" clip-rule="evenodd" d="M13.8241 3.53194C13.6291 3.60521 13.5 3.79169 13.5 3.99999V8.9468C13.5 9.22294 13.7239 9.4468 14 9.4468C14.2761 9.4468 14.5 9.22294 14.5 8.9468V5.33072L20.3356 12L14.5 18.6693V15C14.5 14.7239 14.2761 14.5 14 14.5C11.9883 14.5 9.43606 14.6247 7.24705 15.2041C5.93158 15.5524 4.67807 16.0841 3.76885 16.9039C4.02459 15.8327 4.47406 14.6668 5.16477 13.6246C6.34214 11.848 8.20437 10.4468 11.025 10.4468C11.3011 10.4468 11.525 10.2229 11.525 9.9468C11.525 9.67066 11.3011 9.4468 11.025 9.4468C7.80694 9.4468 5.65666 11.0722 4.33121 13.0722C3.01942 15.0516 2.5 17.4134 2.5 19C2.5 19.2493 2.68371 19.4606 2.93065 19.4952C3.17759 19.5297 3.41226 19.3771 3.48076 19.1374C3.9032 17.6588 5.4115 16.7245 7.50295 16.1708C9.39425 15.6702 11.6112 15.5235 13.5 15.5027V20C13.5 20.2083 13.6291 20.3948 13.8241 20.468C14.0191 20.5413 14.2391 20.486 14.3763 20.3292L21.3763 12.3292C21.5412 12.1407 21.5412 11.8593 21.3763 11.6707L14.3763 3.67074C14.2391 3.51397 14.0191 3.45867 13.8241 3.53194Z" fill="black"/>
</svg>
