<svg width="24" height="24" viewBox="0 0 24 24" fill="none" xmlns="http://www.w3.org/2000/svg">
<path fill-rule="evenodd" clip-rule="evenodd" d="M6.44922 17.975C6.22923 17.9436 6.05638 17.7708 6.02496 17.5508L5.14107 11.3636C5.07312 10.8879 5.64983 10.5996 5.9896 10.9393L7.40382 12.3535C7.59908 12.5488 7.91566 12.5488 8.11092 12.3535C8.30618 12.1583 8.30618 11.8417 8.11092 11.6464L6.69671 10.2322C5.6774 9.21291 3.94726 10.078 4.15112 11.505L5.03501 17.6922C5.12929 18.3522 5.64783 18.8707 6.3078 18.965L12.495 19.8489C13.922 20.0527 14.7871 18.3226 13.7678 17.3033L10.9393 14.4749C10.7441 14.2796 10.7441 13.963 10.9393 13.7678L18.7175 5.98958C18.9128 5.79432 18.9128 5.47774 18.7175 5.28247C18.5223 5.08721 18.2057 5.08721 18.0104 5.28247L10.2322 13.0606C9.64646 13.6464 9.64646 14.5962 10.2322 15.182L13.0607 18.0104C13.4004 18.3502 13.1121 18.9269 12.6364 18.8589L6.44922 17.975Z" fill="black"/>
</svg>
