<svg width="24" height="24" viewBox="0 0 24 24" fill="none" xmlns="http://www.w3.org/2000/svg">
<path fill-rule="evenodd" clip-rule="evenodd" d="M15.3455 3.51471C15.5424 3.55073 15.7837 3.66311 16.0566 3.95005C16.3288 4.23628 16.4438 4.49822 16.4829 4.72258C16.5227 4.95064 16.4903 5.17598 16.4121 5.3933C16.2503 5.84278 15.9155 6.19665 15.787 6.32397L15.7814 6.32959L12.0667 10.2527L12.7928 10.9403L16.4967 7.02858C16.654 6.87224 17.1154 6.39213 17.353 5.73199C17.476 5.39033 17.5441 4.98664 17.468 4.55064C17.3913 4.11093 17.1739 3.67378 16.7812 3.26091C16.3892 2.84873 15.9656 2.61154 15.5254 2.53103C15.0884 2.45111 14.6838 2.5344 14.3412 2.67848C13.69 2.9524 13.1874 3.48119 12.9662 3.71398C12.962 3.71842 12.9579 3.72274 12.9539 3.72696L7.63498 9.31983C6.89173 10.1013 6.5 11.037 6.5 11.9947C6.5 12.9525 6.89173 13.8882 7.63497 14.6697C8.46531 15.5429 9.26737 16.3717 9.99783 17.1266C11.2719 18.4433 12.3282 19.5349 12.9368 20.2437C13.1678 20.5127 13.6757 21.0575 14.3457 21.3317C14.6908 21.4729 15.0957 21.5495 15.5312 21.4645C15.9691 21.379 16.3905 21.1395 16.7812 20.7286C17.1738 20.3158 17.3925 19.8773 17.4662 19.4316C17.5393 18.9897 17.4638 18.5785 17.3295 18.2255C17.0718 17.5483 16.5714 17.0223 16.3488 16.7884L12.792 13.0484L12.0674 13.7375L15.6133 17.4661C15.8398 17.7042 16.2134 18.1042 16.3948 18.581C16.4821 18.8106 16.5174 19.0403 16.4796 19.2684C16.4425 19.4927 16.3288 19.7532 16.0566 20.0395C15.7824 20.3278 15.539 20.4441 15.3397 20.483C15.138 20.5224 14.9335 20.4918 14.7245 20.4062C14.2865 20.2269 13.9078 19.8396 13.6955 19.5923C13.0684 18.8619 11.9744 17.7312 10.6796 16.393C9.95377 15.6427 9.16479 14.8273 8.35961 13.9806C7.77313 13.3639 7.5 12.6683 7.5 11.9947C7.5 11.3212 7.77312 10.6256 8.3596 10.009L13.6785 4.4161C13.9073 4.17553 14.2845 3.78719 14.7289 3.60027C14.9404 3.51132 15.1453 3.47809 15.3455 3.51471Z" fill="black"/>
</svg>
