<svg width="24" height="24" viewBox="0 0 24 24" fill="none" xmlns="http://www.w3.org/2000/svg">
<path fill-rule="evenodd" clip-rule="evenodd" d="M5.56155 20.5L18.5068 20.5C19.4664 20.5 20.1792 19.6114 19.971 18.6746L16.6859 3.89153C16.6351 3.66277 16.4322 3.5 16.1978 3.5L7.79823 3.5C7.56478 3.5 7.3624 3.66154 7.31066 3.88919L4.98756 14.1108C4.92637 14.3801 4.65846 14.5488 4.38919 14.4876C4.11991 14.4264 3.95123 14.1585 4.01243 13.8892L6.33553 3.66757C6.49074 2.98463 7.09788 2.5 7.79823 2.5L16.1978 2.5C16.9009 2.5 17.5096 2.9883 17.6621 3.6746L20.9472 18.4577C21.2942 20.019 20.1061 21.5 18.5068 21.5L5.56155 21.5C3.93512 21.5 2.74173 19.9715 3.13619 18.3937L3.32556 17.6362C3.4925 16.9684 4.09247 16.5 4.78078 16.5L16.5 16.5C16.7761 16.5 17 16.7239 17 17C17 17.2761 16.7761 17.5 16.5 17.5L4.78078 17.5C4.55134 17.5 4.35135 17.6561 4.2957 17.8787L4.10634 18.6362C3.86966 19.5829 4.58569 20.5 5.56155 20.5Z" fill="black"/>
</svg>
