<svg width="24" height="24" viewBox="0 0 24 24" fill="none" xmlns="http://www.w3.org/2000/svg">
<path fill-rule="evenodd" clip-rule="evenodd" d="M9.5 5C9.5 3.61929 10.6193 2.5 12 2.5C13.3807 2.5 14.5 3.61929 14.5 5V9.5L19 9.5C20.3807 9.5 21.5 10.6193 21.5 12C21.5 13.3807 20.3807 14.5 19 14.5H14.5V19C14.5 20.3807 13.3807 21.5 12 21.5C10.6193 21.5 9.5 20.3807 9.5 19V14.5H5C3.61929 14.5 2.5 13.3807 2.5 12C2.5 10.6193 3.61929 9.5 5 9.5H7C7.27614 9.5 7.5 9.72386 7.5 10C7.5 10.2761 7.27614 10.5 7 10.5H5C4.17157 10.5 3.5 11.1716 3.5 12C3.5 12.8284 4.17157 13.5 5 13.5H10C10.2761 13.5 10.5 13.7239 10.5 14V19C10.5 19.8284 11.1716 20.5 12 20.5C12.8284 20.5 13.5 19.8284 13.5 19V14C13.5 13.7239 13.7239 13.5 14 13.5H19C19.8284 13.5 20.5 12.8284 20.5 12C20.5 11.1716 19.8284 10.5 19 10.5L14 10.5C13.7239 10.5 13.5 10.2761 13.5 10V5C13.5 4.17157 12.8284 3.5 12 3.5C11.1716 3.5 10.5 4.17157 10.5 5V10C10.5 10.2761 10.2761 10.5 10 10.5C9.72386 10.5 9.5 10.2761 9.5 10V5Z" fill="black"/>
</svg>
