<svg width="24" height="24" viewBox="0 0 24 24" fill="none" xmlns="http://www.w3.org/2000/svg">
<path fill-rule="evenodd" clip-rule="evenodd" d="M16.6464 5.64645C16.8417 5.45118 17.1583 5.45118 17.3535 5.64645L21.3535 9.64645C21.5488 9.84171 21.5488 10.1583 21.3535 10.3536L17.3535 14.3536C17.1583 14.5488 16.8417 14.5488 16.6464 14.3536C16.4512 14.1583 16.4512 13.8417 16.6464 13.6464L19.7929 10.5H8.99998C8.02595 10.5 6.60954 10.624 5.45517 11.1435C4.88338 11.4008 4.39764 11.7454 4.05555 12.1994C3.7183 12.6469 3.5 13.2274 3.5 14C3.5 14.7874 3.69546 15.3782 3.98912 15.8284C4.28482 16.2818 4.69799 16.62 5.17144 16.8706C6.13114 17.3787 7.28772 17.5 7.99995 17.5C8.2761 17.5 8.49995 17.7239 8.49995 18C8.49995 18.2761 8.2761 18.5 7.99995 18.5C7.21224 18.5 5.86884 18.3713 4.70355 17.7544C4.1145 17.4425 3.55893 16.9994 3.15151 16.3747C2.74204 15.7468 2.5 14.9626 2.5 14C2.5 13.0226 2.78169 12.2281 3.25694 11.5975C3.72735 10.9733 4.3666 10.5367 5.04481 10.2315C6.39043 9.62601 7.974 9.5 8.99998 9.5H19.7929L16.6464 6.35355C16.4512 6.15829 16.4512 5.84171 16.6464 5.64645Z" fill="black"/>
</svg>
