<svg width="24" height="24" viewBox="0 0 24 24" fill="none" xmlns="http://www.w3.org/2000/svg">
<path fill-rule="evenodd" clip-rule="evenodd" d="M3.51473 8.65452C3.55074 8.4576 3.66313 8.21631 3.95007 7.94342C4.23629 7.67121 4.49823 7.55623 4.72259 7.51706C4.95066 7.47726 5.176 7.50969 5.39332 7.58792C5.8428 7.74972 6.19667 8.08446 6.32398 8.21296L6.3296 8.21863L10.2527 11.9333L10.9403 11.2072L7.0286 7.50333C6.87225 7.34604 6.39214 6.88464 5.73201 6.64702C5.39034 6.52403 4.98665 6.45586 4.55065 6.53196C4.11095 6.6087 3.6738 6.82614 3.26093 7.21879C2.84874 7.61079 2.61156 8.03437 2.53104 8.47462C2.45113 8.91157 2.53441 9.31619 2.6785 9.65876C2.95241 10.31 3.4812 10.8126 3.714 11.0338C3.71843 11.038 3.72276 11.0421 3.72697 11.0461L9.31985 16.365C10.1014 17.1083 11.037 17.5 11.9948 17.5C12.9525 17.5 13.8882 17.1083 14.6697 16.365C15.5429 15.5347 16.3717 14.7326 17.1266 14.0022C18.4433 12.7281 19.5349 11.6718 20.2437 11.0632C20.5127 10.8322 21.0575 10.3243 21.3317 9.65428C21.473 9.30922 21.5495 8.90425 21.4645 8.46878C21.379 8.03093 21.1395 7.60948 20.7287 7.2188C20.3158 6.82619 19.8773 6.60749 19.4316 6.53377C18.9897 6.46068 18.5785 6.53625 18.2255 6.67055C17.5483 6.92815 17.0224 7.42858 16.7884 7.65121L13.0484 11.208L13.7375 11.9326L17.4661 8.38667C17.7042 8.16025 18.1043 7.78657 18.581 7.60521C18.8106 7.51788 19.0403 7.48264 19.2684 7.52036C19.4927 7.55746 19.7533 7.67118 20.0395 7.94343C20.3278 8.21761 20.4441 8.46102 20.483 8.66034C20.5224 8.86202 20.4918 9.06651 20.4062 9.2755C20.227 9.71354 19.8396 10.0922 19.5923 10.3045C18.8619 10.9316 17.7312 12.0256 16.393 13.3204C15.6428 14.0462 14.8273 14.8352 13.9806 15.6404C13.3639 16.2269 12.6683 16.5 11.9948 16.5C11.3212 16.5 10.6257 16.2269 10.009 15.6404L4.41611 10.3215C4.17555 10.0927 3.78721 9.71549 3.60028 9.27106C3.51133 9.05958 3.47811 8.85473 3.51473 8.65452Z" fill="black"/>
</svg>
