<svg width="24" height="24" viewBox="0 0 24 24" fill="none" xmlns="http://www.w3.org/2000/svg">
<path fill-rule="evenodd" clip-rule="evenodd" d="M8 20.5L16 20.5C16.8284 20.5 17.5 19.8284 17.5 19L17.5 5C17.5 4.17157 16.8284 3.5 16 3.5L8 3.5C7.17157 3.5 6.5 4.17157 6.5 5L6.5 15C6.5 15.2761 6.27614 15.5 6 15.5C5.72386 15.5 5.5 15.2761 5.5 15L5.5 5C5.5 3.61929 6.61929 2.5 8 2.5L16 2.5C17.3807 2.5 18.5 3.61929 18.5 5L18.5 19C18.5 20.3807 17.3807 21.5 16 21.5L8 21.5C6.61929 21.5 5.5 20.3807 5.5 19C5.5 18.1716 6.17157 17.5 7 17.5L15 17.5C15.2761 17.5 15.5 17.7239 15.5 18C15.5 18.2761 15.2761 18.5 15 18.5L7 18.5C6.72386 18.5 6.5 18.7239 6.5 19C6.5 19.8284 7.17157 20.5 8 20.5Z" fill="black"/>
</svg>
