<svg width="24" height="24" viewBox="0 0 24 24" fill="none" xmlns="http://www.w3.org/2000/svg">
<path fill-rule="evenodd" clip-rule="evenodd" d="M13.7537 2.5649C13.9104 2.47615 14.1028 2.47857 14.2572 2.57125L19.2572 5.57125C19.494 5.71333 19.5708 6.02046 19.4287 6.25725C19.2867 6.49404 18.9795 6.57082 18.7428 6.42875L14.5 3.8831V17C14.5 19.2343 12.8162 21.5 10 21.5C7.18379 21.5 5.5 19.2343 5.5 17C5.5 14.7657 7.18379 12.5 10 12.5C10.2761 12.5 10.5 12.7239 10.5 13C10.5 13.2761 10.2761 13.5 10 13.5C7.81621 13.5 6.5 15.2343 6.5 17C6.5 18.7657 7.81621 20.5 10 20.5C12.1838 20.5 13.5 18.7657 13.5 17V3C13.5 2.81986 13.5969 2.65365 13.7537 2.5649Z" fill="black"/>
</svg>
