<svg width="24" height="24" viewBox="0 0 24 24" fill="none" xmlns="http://www.w3.org/2000/svg">
<path fill-rule="evenodd" clip-rule="evenodd" d="M6.44921 6.02496C6.22922 6.05639 6.05637 6.22924 6.02494 6.44922L5.14106 12.6364C5.07311 13.1121 5.64982 13.4004 5.98959 13.0607L7.4038 11.6465C7.59907 11.4512 7.91565 11.4512 8.11091 11.6465C8.30617 11.8417 8.30617 12.1583 8.11091 12.3536L6.6967 13.7678C5.67739 14.7871 3.94725 13.922 4.15111 12.495L5.03499 6.3078C5.12928 5.64784 5.64782 5.12929 6.30779 5.03501L12.495 4.15113C13.922 3.94727 14.7871 5.6774 13.7678 6.69671L10.9393 9.52514C10.7441 9.7204 10.7441 10.037 10.9393 10.2322L18.7175 18.0104C18.9128 18.2057 18.9128 18.5223 18.7175 18.7175C18.5222 18.9128 18.2057 18.9128 18.0104 18.7175L10.2322 10.9394C9.64644 10.3536 9.64644 9.40382 10.2322 8.81803L13.0607 5.98961C13.4004 5.64984 13.1121 5.07312 12.6364 5.14108L6.44921 6.02496Z" fill="black"/>
</svg>
