<svg width="24" height="24" viewBox="0 0 24 24" fill="none" xmlns="http://www.w3.org/2000/svg">
<path fill-rule="evenodd" clip-rule="evenodd" d="M16.0723 4.02447C15.1062 3.04182 13.7428 2.5 12.152 2.5C10.5611 2.5 9.19768 3.04182 8.23162 4.02447C7.26631 5.00636 6.73639 6.38891 6.73639 8C6.73639 10.169 7.68077 11.567 8.84956 12.4062C9.07671 12.5692 9.31145 12.7107 9.54827 12.8327C8.2421 13.1916 7.18153 13.8173 6.31804 14.5934C4.95268 15.8205 4.10642 17.3993 3.53629 18.813C3.433 19.0691 3.55689 19.3604 3.81299 19.4637C4.06909 19.567 4.36043 19.4431 4.46371 19.187C5.00637 17.8414 5.78141 16.4202 6.98649 15.3371C8.17945 14.265 9.82004 13.5 12.152 13.5C14.332 13.5 15.9057 14.1685 17.074 15.1279C18.252 16.0953 19.0453 17.3816 19.6137 18.6532C19.9929 19.5016 19.3273 20.5 18.2827 20.5H6.74483C6.46869 20.5 6.24483 20.7239 6.24483 21C6.24483 21.2761 6.46869 21.5 6.74483 21.5H18.2827C19.9348 21.5 21.2479 19.8588 20.5266 18.2452C19.9232 16.8952 19.0503 15.4569 17.7086 14.3551C16.9122 13.7011 15.9602 13.1737 14.8203 12.8507C15.43 12.5136 15.9312 12.0662 16.33 11.5591C17.1928 10.462 17.5675 9.10016 17.5675 8C17.5675 6.38891 17.0376 5.00636 16.0723 4.02447ZM15.3592 4.72553C16.1143 5.49364 16.5675 6.61109 16.5675 8C16.5675 8.89984 16.2541 10.038 15.5439 10.9409C14.8475 11.8265 13.7606 12.5 12.152 12.5C11.5013 12.5 10.3789 12.2731 9.43279 11.5938C8.51246 10.933 7.73639 9.83102 7.73639 8C7.73639 6.61109 8.18959 5.49364 8.94472 4.72553C9.69912 3.95818 10.7935 3.5 12.152 3.5C13.5104 3.5 14.6048 3.95818 15.3592 4.72553Z" fill="black"/>
</svg>
