<svg width="24" height="24" viewBox="0 0 24 24" fill="none" xmlns="http://www.w3.org/2000/svg">
<path fill-rule="evenodd" clip-rule="evenodd" d="M12.3 3.85C12.1222 3.71667 11.8778 3.71667 11.7 3.85L6.69999 7.6C6.31559 7.88831 6.51949 8.5 6.99999 8.5H9C9.27614 8.5 9.5 8.72386 9.5 9C9.5 9.27614 9.27614 9.5 9 9.5H6.99999C5.55848 9.5 4.94678 7.66491 6.09999 6.8L11.1 3.05C11.6333 2.65 12.3667 2.65 12.9 3.05L17.9 6.8C19.0532 7.66491 18.4415 9.5 17 9.5H13C12.7239 9.5 12.5 9.72386 12.5 10V21C12.5 21.2761 12.2761 21.5 12 21.5C11.7239 21.5 11.5 21.2761 11.5 21V10C11.5 9.17157 12.1716 8.5 13 8.5H17C17.4805 8.5 17.6844 7.88831 17.3 7.6L12.3 3.85Z" fill="black"/>
</svg>
