<svg width="24" height="24" viewBox="0 0 24 24" fill="none" xmlns="http://www.w3.org/2000/svg">
<path fill-rule="evenodd" clip-rule="evenodd" d="M15.9163 3.50668C16.4831 2.83676 17.5015 2.79441 18.122 3.41494L19.7029 4.99582C20.2546 5.54746 20.2913 6.42985 19.7873 7.02539L9.38169 19.323C9.33795 19.3747 9.28417 19.4169 9.2236 19.4472L7.11803 20.5H21C21.2761 20.5 21.5 20.7239 21.5 21C21.5 21.2761 21.2761 21.5 21 21.5H5C4.76811 21.5 4.56665 21.3406 4.51337 21.1149C4.4601 20.8892 4.56898 20.6565 4.77639 20.5528L8.6846 18.5987L19.024 6.37945C19.1919 6.18094 19.1797 5.88681 18.9958 5.70293L17.4149 4.12204C17.2081 3.9152 16.8686 3.92932 16.6797 4.15262L6.44389 16.2495L5.47434 19.1581C5.38702 19.4201 5.10386 19.5617 4.84188 19.4743C4.57991 19.387 4.43833 19.1039 4.52566 18.8419L5.52566 15.8419C5.54577 15.7815 5.57722 15.7256 5.61831 15.677L15.9163 3.50668Z" fill="black"/>
</svg>
