<svg width="24" height="24" viewBox="0 0 24 24" fill="none" xmlns="http://www.w3.org/2000/svg">
<path fill-rule="evenodd" clip-rule="evenodd" d="M19.2121 2.54722C19.4027 2.63651 19.517 2.83564 19.4979 3.04528L18.9979 8.54528C18.9745 8.80282 18.7586 9.00001 18.5 9.00001H13.5C13.2965 9.00001 13.1133 8.87665 13.0367 8.68806C12.9602 8.49947 13.0056 8.28331 13.1515 8.14146L15.1553 6.19394C14.1966 5.74866 13.1279 5.50001 12 5.50001C7.85786 5.50001 4.5 8.85788 4.5 13C4.5 17.1421 7.85786 20.5 12 20.5C16.1421 20.5 19.5 17.1421 19.5 13C19.5 12.7239 19.7239 12.5 20 12.5C20.2761 12.5 20.5 12.7239 20.5 13C20.5 17.6944 16.6944 21.5 12 21.5C7.30558 21.5 3.5 17.6944 3.5 13C3.5 8.30559 7.30558 4.50001 12 4.50001C13.5474 4.50001 14.9996 4.91395 16.2504 5.63747C16.3859 5.71589 16.4769 5.85332 16.4962 6.00875C16.5155 6.16418 16.4608 6.31967 16.3485 6.42883L14.7319 8.00001H18.0434L18.377 4.3301L17.8536 4.85357C17.6583 5.04883 17.3417 5.04883 17.1464 4.85357C16.9512 4.65831 16.9512 4.34172 17.1464 4.14646L18.6464 2.64646C18.7953 2.49761 19.0214 2.45793 19.2121 2.54722Z" fill="black"/>
</svg>
