<svg width="24" height="24" viewBox="0 0 24 24" fill="none" xmlns="http://www.w3.org/2000/svg">
<path fill-rule="evenodd" clip-rule="evenodd" d="M17.5508 17.975C17.7708 17.9436 17.9436 17.7708 17.9751 17.5508L18.8589 11.3636C18.9269 10.8879 18.3502 10.5996 18.0104 10.9393L16.5962 12.3535C16.4009 12.5488 16.0843 12.5488 15.8891 12.3535C15.6938 12.1583 15.6938 11.8417 15.8891 11.6464L17.3033 10.2322C18.3226 9.21291 20.0527 10.078 19.8489 11.505L18.965 17.6922C18.8707 18.3522 18.3522 18.8707 17.6922 18.965L11.505 19.8489C10.078 20.0527 9.21292 18.3226 10.2322 17.3033L13.0607 14.4749C13.2559 14.2796 13.2559 13.963 13.0607 13.7678L5.28248 5.98958C5.08722 5.79432 5.08722 5.47774 5.28248 5.28247C5.47775 5.08721 5.79433 5.08721 5.98959 5.28247L13.7678 13.0606C14.3536 13.6464 14.3536 14.5962 13.7678 15.182L10.9393 18.0104C10.5996 18.3502 10.8879 18.9269 11.3636 18.8589L17.5508 17.975Z" fill="black"/>
</svg>
