<svg width="24" height="24" viewBox="0 0 24 24" fill="none" xmlns="http://www.w3.org/2000/svg">
<path fill-rule="evenodd" clip-rule="evenodd" d="M3.51472 15.3455C3.55074 15.5424 3.66312 15.7837 3.95006 16.0566C4.23629 16.3288 4.49823 16.4438 4.72259 16.4829C4.95065 16.5227 5.176 16.4903 5.39331 16.4121C5.8428 16.2503 6.19666 15.9155 6.32398 15.787L6.3296 15.7814L10.2527 12.0667L10.9403 12.7928L7.02859 16.4967C6.87225 16.654 6.39214 17.1154 5.732 17.353C5.39034 17.476 4.98665 17.5441 4.55065 17.468C4.11094 17.3913 3.67379 17.1739 3.26092 16.7812C2.84874 16.3892 2.61155 15.9656 2.53104 15.5254C2.45112 15.0884 2.53441 14.6838 2.67849 14.3412C2.95241 13.69 3.4812 13.1874 3.71399 12.9662C3.71843 12.962 3.72275 12.9579 3.72697 12.9539L9.31985 7.63498C10.1014 6.89173 11.037 6.5 11.9948 6.5C12.9525 6.5 13.8882 6.89173 14.6697 7.63497C15.5429 8.46531 16.3717 9.26737 17.1266 9.99783C18.4433 11.2719 19.5349 12.3282 20.2437 12.9368C20.5127 13.1678 21.0575 13.6757 21.3317 14.3457C21.473 14.6908 21.5495 15.0957 21.4645 15.5312C21.379 15.9691 21.1395 16.3905 20.7287 16.7812C20.3158 17.1738 19.8773 17.3925 19.4316 17.4662C18.9897 17.5393 18.5785 17.4638 18.2255 17.3295C17.5483 17.0718 17.0224 16.5714 16.7884 16.3488L13.0484 12.792L13.7375 12.0674L17.4661 15.6133C17.7042 15.8398 18.1043 16.2134 18.581 16.3948C18.8106 16.4821 19.0403 16.5174 19.2684 16.4796C19.4927 16.4425 19.7532 16.3288 20.0395 16.0566C20.3278 15.7824 20.4441 15.539 20.483 15.3397C20.5224 15.138 20.4918 14.9335 20.4062 14.7245C20.227 14.2865 19.8396 13.9078 19.5923 13.6955C18.8619 13.0684 17.7312 11.9744 16.393 10.6796C15.6427 9.95377 14.8273 9.16479 13.9806 8.35961C13.3639 7.77313 12.6683 7.5 11.9948 7.5C11.3212 7.5 10.6257 7.77312 10.009 8.3596L4.41611 13.6785C4.17554 13.9073 3.78721 14.2845 3.60028 14.7289C3.51133 14.9404 3.47811 15.1453 3.51472 15.3455Z" fill="black"/>
</svg>
