<svg width="24" height="24" viewBox="0 0 24 24" fill="none" xmlns="http://www.w3.org/2000/svg">
<path d="M9.87867 7.05025L7.75735 4.92893C6.9763 4.14788 5.70998 4.14788 4.92893 4.92893C4.14788 5.70997 4.14788 6.9763 4.92893 7.75735L9.17157 12L4.92893 16.2426C4.14788 17.0237 4.14788 18.29 4.92893 19.0711C5.70997 19.8521 6.97631 19.8521 7.75735 19.0711L12 14.8284L16.2426 19.0711C17.0237 19.8521 18.29 19.8521 19.0711 19.0711C19.8521 18.29 19.8521 17.0237 19.0711 16.2426L14.8284 12L19.0711 7.75735C19.8521 6.97631 19.8521 5.70998 19.0711 4.92893C18.29 4.14788 17.0237 4.14788 16.2426 4.92893L12 9.17157" stroke="black" stroke-linecap="round" stroke-linejoin="round"/>
</svg>
