<svg width="24" height="24" viewBox="0 0 24 24" fill="none" xmlns="http://www.w3.org/2000/svg">
<path d="M10.6406 18.2768L9.29877 20.6495C1.57055 17.6915 2.44376 10.5208 4.1845 7.69526C4.1845 7.69526 7.66473 13.487 8.95745 15.0979C10.2502 16.7089 13.7191 16.4509 14.583 15.7477L11.5312 20.9436C11.5312 20.9436 15.2288 21.6214 18.633 18.2768C21.5665 15.3944 21.1942 11.2837 20.5495 9.49377H13.3331C13.8359 9.57048 15.1377 12.2969 14.0718 13.3269C12.4039 14.9387 10.4067 14.1138 9.61115 12.8461L5.18737 5.89253C7.77914 3.32269 14.4326 0.366323 19.8109 7.24007L12.7648 7.24007C11.9009 7.20171 10.6406 7.24007 9.29877 8.39448" stroke="black" stroke-linecap="round" stroke-linejoin="round"/>
</svg>
