<?xml version="1.0" encoding="utf-8"?>
<!-- Generator: Adobe Illustrator 14.0.0, SVG Export Plug-In  -->
<!DOCTYPE svg PUBLIC "-//W3C//DTD SVG 1.1//EN" "http://www.w3.org/Graphics/SVG/1.1/DTD/svg11.dtd" [
	<!ENTITY ns_flows "http://ns.adobe.com/Flows/1.0/">
]>
<svg version="1.1"
	 xmlns="http://www.w3.org/2000/svg" xmlns:xlink="http://www.w3.org/1999/xlink" xmlns:a="http://ns.adobe.com/AdobeSVGViewerExtensions/3.0/"
	 x="0px" y="0px" width="454px" height="454px" viewBox="-82.777 -82.759 454 454" enable-background="new -82.777 -82.759 454 454"
	 xml:space="preserve">
<defs>
</defs>
<path fill="#FFFFFF" d="M143.976,0C65.543,0,1.761,62.707,0,140.717C1.756,71.689,58.258,16.273,127.702,16.273
	c70.544,0,127.739,57.189,127.739,127.736c0,70.553-57.195,127.736-127.739,127.736C58.258,271.746,1.756,216.334,0,147.309
	c1.761,78.01,65.543,140.717,143.976,140.717c79.533,0,144.014-64.48,144.014-144.016C287.99,64.473,223.509,0,143.976,0z"/>
<path fill="#FFFFFF" d="M99.865,208.197c-35.448,0-64.183-28.74-64.183-64.188s28.735-64.184,64.183-64.184
	c8.303,0,16.217,1.592,23.502,4.455c-11.62-7.965-25.693-12.631-40.852-12.631c-39.965,0-72.366,32.395-72.366,72.359
	c0,39.971,32.4,72.365,72.366,72.365c15.159,0,29.232-4.672,40.852-12.633C116.082,206.607,108.167,208.197,99.865,208.197z"/>
</svg>
