<svg width="24" height="24" viewBox="0 0 24 24" fill="none" xmlns="http://www.w3.org/2000/svg">
<path fill-rule="evenodd" clip-rule="evenodd" d="M7.97089 3.51769C9.18698 2.75955 10.7456 2.46939 12.4802 2.50253C14.2265 2.53589 15.5336 2.91451 16.4401 3.44314C17.3317 3.96306 17.8837 4.66157 17.9883 5.34679C18.098 6.06541 17.7068 6.74148 17.0445 7.07162C16.377 7.40434 15.4837 7.37568 14.5281 6.87083C13.3195 6.23235 11.7759 6.37213 11.1648 6.5278C10.8972 6.59596 10.625 6.43428 10.5568 6.16668C10.4887 5.89908 10.6504 5.6269 10.918 5.55874C11.652 5.37177 13.4798 5.18606 14.9952 5.98663C15.742 6.38117 16.2885 6.33111 16.5984 6.17665C16.9134 6.01961 17.0372 5.74275 16.9998 5.49772C16.9573 5.21931 16.679 4.74002 15.9364 4.307C15.2088 3.88269 14.0777 3.53323 12.4611 3.50235C10.8327 3.47124 9.49078 3.74857 8.49993 4.36629C7.52753 4.97251 6.84396 5.93674 6.57261 7.39801C6.31181 8.80252 6.78483 9.88783 7.51588 10.7114C8.25973 11.5494 9.2654 12.105 10.0007 12.386C10.1856 12.4566 10.3759 12.5272 10.569 12.5988C11.4749 12.9348 12.4435 13.2941 13.2101 13.7905C14.1792 14.418 14.9082 15.3156 14.8832 16.7165C14.8701 17.4491 14.577 17.9953 14.0964 18.3514C13.6409 18.6888 13.0656 18.8202 12.5297 18.8554C11.9864 18.8912 11.4305 18.8316 10.9647 18.7401C10.5068 18.6501 10.095 18.5212 9.84752 18.3952C9.7322 18.3364 9.56434 18.237 9.38375 18.13C9.25673 18.0547 9.12342 17.9758 8.99767 17.9046C8.65988 17.7134 8.2945 17.5275 7.94309 17.4117C7.58324 17.293 7.30028 17.269 7.09795 17.327C6.93189 17.3746 6.74995 17.4965 6.61287 17.8664C6.46106 18.2761 6.49087 18.6012 6.61537 18.8731C6.74649 19.1594 7.00471 19.4325 7.38358 19.6756C8.14755 20.166 9.27299 20.4506 10.263 20.4909C11.2827 20.5325 13.1699 20.4513 14.7679 19.8335C15.5628 19.5262 16.2562 19.0975 16.7426 18.5141C17.2208 17.9407 17.5223 17.1908 17.4987 16.1839C17.4605 14.5474 16.7507 13.4277 15.8083 12.6533C14.8506 11.8661 13.6426 11.4306 12.6422 11.2225C11.838 11.0553 10.7916 10.6475 10.0143 10.0292C9.23869 9.41221 8.60881 8.46734 9.03811 7.30482C9.13377 7.04578 9.42131 6.91333 9.68036 7.00899C9.9394 7.10465 10.0718 7.3922 9.97619 7.65124C9.76652 8.21901 10.0079 8.74626 10.6368 9.24655C11.264 9.74546 12.1556 10.1 12.8458 10.2435C13.9414 10.4713 15.3187 10.9565 16.4433 11.8807C17.5831 12.8175 18.4526 14.1995 18.4985 16.1606C18.5275 17.4022 18.1485 18.3896 17.5107 19.1545C16.8811 19.9095 16.023 20.4204 15.1285 20.7662C13.3478 21.4547 11.3044 21.5342 10.2223 21.4901C9.11042 21.4448 7.79771 21.1297 6.84343 20.5172C6.36317 20.209 5.94223 19.8049 5.70618 19.2895C5.46351 18.7596 5.43815 18.1586 5.67518 17.5189C5.90364 16.9024 6.3012 16.5151 6.8224 16.3657C7.30734 16.2267 7.81943 16.3179 8.25623 16.4619C8.70146 16.6087 9.13432 16.8329 9.4902 17.0343C9.6707 17.1365 9.81916 17.225 9.94462 17.2998C10.0896 17.3863 10.2039 17.4544 10.3014 17.5041C10.4323 17.5708 10.743 17.6774 11.1574 17.7588C11.5638 17.8386 12.0299 17.8861 12.4641 17.8576C12.9055 17.8286 13.2628 17.7244 13.501 17.5479C13.714 17.3901 13.8754 17.144 13.8833 16.6987C13.9004 15.7441 13.442 15.132 12.6666 14.6299C12.0017 14.1994 11.1639 13.8877 10.2616 13.552C10.0586 13.4765 9.85223 13.3997 9.64386 13.3201C8.80847 13.001 7.64924 12.3681 6.768 11.3753C5.87396 10.368 5.26171 8.98024 5.58942 7.21543C5.90659 5.50738 6.73635 4.28734 7.97089 3.51769Z" fill="black"/>
</svg>
