<svg width="24" height="24" viewBox="0 0 24 24" fill="none" xmlns="http://www.w3.org/2000/svg">
<path fill-rule="evenodd" clip-rule="evenodd" d="M8.9959 4.04595C9.39822 4.20527 9.83236 4.38313 10.2513 4.5647C10.6828 4.75176 11.1036 4.94509 11.459 5.12798C11.6495 5.22603 11.8336 5.32719 11.9945 5.42823C12.7522 4.90413 14.0247 4.27986 15.6267 4.31031C14.5267 3.79062 13.2973 3.5 12 3.5C10.9418 3.5 9.92954 3.69314 8.9959 4.04595ZM16.7454 4.9469C16.7245 5.06403 16.6621 5.17246 16.5654 5.24982C16.2608 5.4935 15.7788 5.9412 15.3502 6.47135C14.9987 6.90614 14.7137 7.35923 14.5695 7.7755C15.361 8.37936 16.3212 9.46896 17.1516 10.795C18.0974 12.3053 18.9155 14.1861 19.1239 16.1204C19.1483 16.3468 19.0166 16.5611 18.8036 16.6416C18.5906 16.7222 18.3501 16.6486 18.2186 16.4627C17.4689 15.4029 16.2374 13.8969 14.9963 12.6486C14.3754 12.0241 13.7628 11.475 13.2153 11.0799C12.6554 10.6759 12.2392 10.4895 11.9845 10.4691C11.6764 10.4729 11.293 10.5896 10.8288 10.8559C10.36 11.1249 9.83943 11.5289 9.27378 12.0594C8.14218 13.1208 6.87756 14.6436 5.53963 16.4695C5.40262 16.6565 5.15507 16.7248 4.94157 16.6345C4.90197 16.6177 4.86548 16.5963 4.83254 16.5712C6.34239 18.9337 8.98828 20.5 12 20.5C16.6944 20.5 20.5 16.6944 20.5 12C20.5 9.06293 19.0103 6.47379 16.7454 4.9469ZM4.64407 16.2619C3.91657 15.009 3.5 13.5532 3.5 12C3.5 9.49008 4.58724 7.23476 6.31802 5.67809C6.52334 5.49343 6.54008 5.17729 6.35542 4.97198C6.17076 4.76666 5.85462 4.74992 5.64931 4.93458C3.71657 6.67288 2.5 9.19471 2.5 12C2.5 17.2467 6.75329 21.5 12 21.5C17.2467 21.5 21.5 17.2467 21.5 12C21.5 6.75329 17.2467 2.5 12 2.5C10.3596 2.5 8.815 2.91616 7.46739 3.64907C7.29485 3.7429 7.19323 3.92907 7.20762 4.12495C7.22201 4.32083 7.34975 4.49014 7.53416 4.55775C8.10219 4.76602 9.01198 5.11744 9.8536 5.48222C10.2747 5.66474 10.6733 5.84829 11.0014 6.01713C11.3416 6.19223 11.567 6.33213 11.6715 6.42316C11.8535 6.58176 12.1227 6.58771 12.3115 6.43731C12.8152 6.03611 13.7706 5.4621 15.0154 5.33504C14.867 5.49343 14.7172 5.66374 14.5726 5.84265C14.1027 6.42391 13.6393 7.15354 13.5059 7.89641C13.4701 8.09618 13.5586 8.29781 13.7298 8.4067C14.3936 8.82864 15.4042 9.88889 16.3041 11.3257C16.8249 12.1573 17.295 13.0938 17.6338 14.0746C17.0398 13.3605 16.3747 12.6167 15.7054 11.9435C15.0646 11.299 14.4092 10.7083 13.8004 10.269C13.2141 9.84589 12.5906 9.50256 12.0291 9.46985C12.0194 9.46929 12.0097 9.469 12 9.469C11.4504 9.469 10.887 9.66964 10.3311 9.98857C9.77199 10.3094 9.18856 10.7683 8.58965 11.3301C7.83962 12.0336 7.0467 12.9161 6.22661 13.9309C6.88424 12.0754 8.00673 10.2564 9.88523 8.33421C10.0681 8.14707 10.0758 7.85057 9.90282 7.65423C9.64807 7.36506 9.22443 6.92092 8.77117 6.51741C8.54443 6.31556 8.30422 6.11844 8.06945 5.95464C7.84079 5.79511 7.59001 5.64769 7.34511 5.56977C7.08197 5.48604 6.80078 5.63149 6.71705 5.89463C6.63332 6.15777 6.77877 6.43897 7.04191 6.52269C7.14516 6.55554 7.29922 6.63659 7.49725 6.77476C7.68917 6.90866 7.89748 7.07847 8.10625 7.26432C8.37268 7.50152 8.62998 7.75597 8.84191 7.97786C6.28185 10.706 5.11612 13.2993 4.64334 16.0905C4.6335 16.1486 4.63414 16.2064 4.64407 16.2619Z" fill="black"/>
</svg>
