<svg width="24" height="24" viewBox="0 0 24 24" fill="none" xmlns="http://www.w3.org/2000/svg">
<path fill-rule="evenodd" clip-rule="evenodd" d="M10.4995 7.30873C10.393 8.15749 10.3923 9.05708 10.3923 9.94249C10.3923 10.2186 10.1685 10.4425 9.89231 10.4425H7.5V12.7538H9.89231C10.1685 12.7538 10.3923 12.9777 10.3923 13.2538V21C10.3923 21.2761 10.1685 21.5 9.89231 21.5C9.61617 21.5 9.39231 21.2761 9.39231 21V13.7538H7C6.72386 13.7538 6.5 13.53 6.5 13.2538V9.94249C6.5 9.66635 6.72386 9.44249 7 9.44249H9.39301C9.39614 8.70909 9.41331 7.93294 9.50726 7.18423C9.62293 6.26232 9.85913 5.34092 10.3595 4.55831C11.403 2.92631 13.4341 2.11728 17.0761 2.6778C17.32 2.71533 17.5 2.9252 17.5 3.17198V6.03983C17.5 6.18159 17.4398 6.31668 17.3345 6.4115C17.2291 6.50632 17.0884 6.55196 16.9474 6.53706C15.3986 6.37336 14.83 6.57597 14.5516 6.94146C14.3963 7.1454 14.2786 7.4624 14.2066 7.97233C14.1503 8.37155 14.1261 8.85527 14.1184 9.44249H17C17.1502 9.44249 17.2924 9.50998 17.3873 9.62632C17.4823 9.74265 17.5199 9.8955 17.4899 10.0426L16.8129 13.354C16.7654 13.5867 16.5606 13.7538 16.3231 13.7538H14.1154V21C14.1154 21.2761 13.8915 21.5 13.6154 21.5C13.3392 21.5 13.1154 21.2761 13.1154 21V13.2538C13.1154 12.9777 13.3392 12.7538 13.6154 12.7538H15.9149L16.3874 10.4425H13.6154C13.3392 10.4425 13.1154 10.2186 13.1154 9.94249C13.1154 9.12075 13.1342 8.41554 13.2164 7.8326C13.2983 7.2523 13.4498 6.73778 13.7561 6.33562C14.3204 5.59448 15.2517 5.41946 16.5 5.49566V3.60635C13.3324 3.20154 11.9049 3.99771 11.202 5.09699C10.8139 5.70396 10.6059 6.4604 10.4995 7.30873Z" fill="black"/>
</svg>
