<svg width="24" height="24" viewBox="0 0 24 24" fill="none" xmlns="http://www.w3.org/2000/svg">
<path fill-rule="evenodd" clip-rule="evenodd" d="M2.5 5C2.5 4.72386 2.72386 4.5 3 4.5H7.42078C7.42913 4.5 7.43747 4.50021 7.4458 4.50063C8.13658 4.53523 9.15615 4.7886 10.0157 5.44785C10.897 6.12382 11.5857 7.21073 11.5857 8.83279C11.5857 9.82046 11.3671 10.6332 10.9773 11.289C10.5875 11.9449 10.0429 12.4163 9.43314 12.7466C8.40567 13.3032 7.18072 13.4668 6.1201 13.4585V18.5H16.6361C17.2667 18.5 18.0266 18.4663 18.6774 18.219C19.3004 17.9823 19.8059 17.5597 20.0061 16.7461C20.2165 15.8911 19.9693 15.2854 19.5374 14.8358C19.0822 14.3619 18.4006 14.0462 17.7621 13.8848C16.9459 13.6784 15.9261 13.1827 15.3086 12.384C14.9925 11.9751 14.7748 11.4762 14.7645 10.899C14.7543 10.3227 14.9516 9.71896 15.3765 9.10049C15.8444 8.41941 16.7895 7.9849 17.8095 7.83501C18.8535 7.68161 20.0813 7.80717 21.2186 8.36017C21.467 8.48092 21.5704 8.78013 21.4497 9.02847C21.3289 9.27681 21.0297 9.38025 20.7814 9.2595C19.8418 8.80266 18.8196 8.69733 17.9549 8.82439C17.0664 8.95495 16.4442 9.31225 16.2007 9.66672C15.8665 10.1532 15.7586 10.5565 15.7644 10.8812C15.7702 11.2049 15.8898 11.5008 16.0997 11.7723C16.5344 12.3345 17.3216 12.742 18.0072 12.9152C18.7532 13.1038 19.6294 13.4881 20.2586 14.1431C20.9112 14.8224 21.2751 15.7744 20.9771 16.9851C20.6828 18.1812 19.896 18.8258 19.0326 19.1538C18.1971 19.4713 17.2764 19.5 16.6361 19.5H5.6201C5.34396 19.5 5.1201 19.2761 5.1201 19V12.941C5.1201 12.8031 5.17707 12.6713 5.27754 12.5768C5.378 12.4823 5.51304 12.4335 5.6507 12.4419C6.73205 12.5082 7.98953 12.3913 8.95684 11.8673C9.43281 11.6095 9.83354 11.2562 10.1177 10.7781C10.4018 10.3 10.5857 9.66971 10.5857 8.83279C10.5857 7.5355 10.0528 6.73662 9.40706 6.24133C8.74452 5.73315 7.93878 5.52903 7.40772 5.5H3.5V19C3.5 19.2761 3.27614 19.5 3 19.5C2.72386 19.5 2.5 19.2761 2.5 19V5Z" fill="black"/>
</svg>
