<svg width="24" height="24" viewBox="0 0 24 24" fill="none" xmlns="http://www.w3.org/2000/svg">
<path fill-rule="evenodd" clip-rule="evenodd" d="M15.2859 3.62335C15.4511 3.4791 15.6911 3.45938 15.8777 3.5747L20.9309 6.69834C21.0703 6.7845 21.1586 6.93347 21.1673 7.09708C21.176 7.2607 21.104 7.4182 20.9746 7.51866L17.9457 9.86916L21.2771 12.0871C21.4181 12.1809 21.502 12.3399 21.5 12.5093C21.4979 12.6787 21.4102 12.8355 21.267 12.926L15.8818 16.3273C15.7029 16.4403 15.4722 16.4284 15.3058 16.2977L12.0292 13.7232L8.57388 16.3051C8.40772 16.4292 8.18216 16.4379 8.00696 16.3269L6.96722 15.668V16.6215L11.8533 19.4241L17.0271 16.4766C17.267 16.3399 17.5723 16.4236 17.709 16.6636C17.8457 16.9035 17.762 17.2088 17.5221 17.3455L12.1 20.4345C11.9461 20.5221 11.7573 20.5218 11.6037 20.4337L6.21844 17.3448C6.06305 17.2557 5.96722 17.0902 5.96722 16.9111V14.7592C5.96722 14.5769 6.06645 14.409 6.22619 14.3211C6.38593 14.2333 6.58085 14.2393 6.73485 14.3369L8.25126 15.2978L11.7376 12.6927C11.9187 12.5574 12.168 12.5605 12.3458 12.7001L15.6462 15.2933L20.0812 12.4922L16.8131 10.3164C16.6792 10.2273 16.5963 10.0791 16.5905 9.91836C16.5847 9.7576 16.6565 9.60384 16.7836 9.50521L19.7925 7.17023L15.6657 4.61929L12.3657 7.5003C12.1809 7.66167 11.9063 7.66508 11.7175 7.50834L8.2308 4.61352L4.08385 7.15834L7.01898 9.28723C7.1473 9.38031 7.22389 9.52873 7.22539 9.68724C7.22689 9.84576 7.15313 9.9956 7.02659 10.0911L3.89607 12.4535L4.95182 13.0797C5.18932 13.2206 5.26764 13.5274 5.12675 13.7649C4.98587 14.0024 4.67913 14.0807 4.44163 13.9398L2.74491 12.9333C2.60157 12.8483 2.51002 12.6974 2.50077 12.531C2.49152 12.3646 2.56579 12.2045 2.69882 12.1041L5.88479 9.69994L2.89086 7.52839C2.75567 7.43034 2.67836 7.27126 2.6848 7.10438C2.69124 6.93749 2.78057 6.78484 2.92291 6.69749L8.01308 3.57385C8.19561 3.46183 8.42921 3.47851 8.59398 3.61531L12.0287 6.46702L15.2859 3.62335Z" fill="black"/>
</svg>
