<svg width="24" height="24" viewBox="0 0 24 24" fill="none" xmlns="http://www.w3.org/2000/svg">
<path fill-rule="evenodd" clip-rule="evenodd" d="M19.3899 5.23777C20.7587 6.51124 21.3257 8.2183 21.454 9.48769C21.6563 11.4886 21.1991 13.635 19.9018 15.2175C18.5868 16.8214 16.4636 17.7786 13.4924 17.4747C10.0915 17.1268 8.06185 14.6885 6.90866 11.9573C6.9073 11.9541 6.90595 11.9509 6.90459 11.9477C6.81497 12.8394 6.79478 13.7112 6.79478 14.4975V21C6.79478 21.2761 6.57092 21.5 6.29478 21.5C6.01864 21.5 5.79478 21.2761 5.79478 21V14.4975C5.79478 13.1848 5.84726 11.5483 6.21437 9.94324C5.68389 8.02593 5.48121 6.09771 5.46381 4.63763H3.5V21C3.5 21.2761 3.27614 21.5 3 21.5C2.72386 21.5 2.5 21.2761 2.5 21V4.13763C2.5 3.86149 2.72386 3.63763 3 3.63763H5.9653C6.09956 3.63763 6.22817 3.69162 6.3222 3.78745C6.41622 3.88328 6.46776 4.01289 6.46521 4.14712C6.44518 5.20234 6.53627 6.60228 6.81146 8.08109C7.73594 5.93205 9.48865 4.13361 12.699 3.64336C15.8541 3.16156 18.0015 3.94615 19.3899 5.23777ZM7.24774 9.92118C7.3704 9.43385 7.52545 8.95552 7.7211 8.49717C8.52357 6.61733 10.0097 5.06564 12.85 4.6319C15.7574 4.18792 17.5814 4.92112 18.7087 5.96992C19.8555 7.03687 20.3484 8.49287 20.4591 9.58827C20.6412 11.3896 20.2198 13.2522 19.1284 14.5835C18.0547 15.8932 16.279 16.7545 13.5942 16.4799C10.7082 16.1847 8.9123 14.1318 7.8299 11.5683C7.6037 11.0326 7.4109 10.479 7.24774 9.92118Z" fill="black"/>
</svg>
