<svg width="24" height="24" viewBox="0 0 24 24" fill="none" xmlns="http://www.w3.org/2000/svg">
<path fill-rule="evenodd" clip-rule="evenodd" d="M13.2579 4.12997C13.0669 4.54375 13.0306 5.09031 13.0306 5.57711V7.90879C13.0306 8.18493 12.8067 8.40879 12.5306 8.40879C12.2544 8.40879 12.0306 8.18493 12.0306 7.90879V5.57711C12.0306 5.08216 12.0594 4.34016 12.35 3.71083C12.4997 3.38637 12.7259 3.07607 13.0651 2.84906C13.4063 2.62076 13.8272 2.5 14.3265 2.5C15.2405 2.5 15.8382 2.93721 16.1795 3.523C16.5001 4.07345 16.5816 4.72669 16.5816 5.20895V11.8062H19.0467C19.4804 11.7832 20.072 11.9245 20.5659 12.2864C21.09 12.6704 21.5 13.3016 21.5 14.2084C21.5 15.0798 21.1776 15.706 20.6631 16.0989C20.1716 16.4742 19.5658 16.5901 19.0612 16.5901H11.7245V19.3217C11.7245 19.789 11.6405 20.3273 11.3144 20.7624C10.9701 21.2217 10.423 21.4793 9.68669 21.4987C8.97375 21.5175 8.38546 21.3295 7.98405 20.8957C7.59194 20.4719 7.45917 19.8998 7.45917 19.3217V12.0904H5.06122C4.54913 12.0904 3.91114 12.0039 3.39001 11.6357C2.83683 11.2447 2.5 10.598 2.5 9.66777C2.5 8.82453 2.85563 8.21304 3.38483 7.82886C3.8917 7.46089 4.51965 7.32697 5.06122 7.32697H10.3653C10.6414 7.32697 10.8653 7.55083 10.8653 7.82697C10.8653 8.10311 10.6414 8.32697 10.3653 8.32697H5.06122C4.66401 8.32697 4.26135 8.42827 3.97231 8.6381C3.70559 8.83173 3.5 9.14064 3.5 9.66777C3.5 10.3329 3.72439 10.6475 3.96713 10.819C4.24191 11.0132 4.63453 11.0904 5.06122 11.0904H7.95917C8.23531 11.0904 8.45917 11.3142 8.45917 11.5904V19.3217C8.45917 19.7663 8.56316 20.0491 8.71802 20.2165C8.86357 20.3738 9.13245 20.513 9.66033 20.4991C10.1648 20.4857 10.3932 20.324 10.5142 20.1626C10.6534 19.9769 10.7245 19.693 10.7245 19.3217V16.0901C10.7245 15.814 10.9483 15.5901 11.2245 15.5901H19.0612C19.4341 15.5901 19.7978 15.5014 20.0562 15.3041C20.2917 15.1243 20.5 14.8096 20.5 14.2084C20.5 13.6425 20.2603 13.3022 19.9749 13.0931C19.6659 12.8667 19.2974 12.7922 19.0931 12.8052C19.0825 12.8059 19.0718 12.8062 19.0612 12.8062H16.0816C15.8054 12.8062 15.5816 12.5824 15.5816 12.3062V5.20895C15.5816 4.81173 15.51 4.36049 15.3154 4.02634C15.1413 3.72752 14.8615 3.5 14.3265 3.5C13.9929 3.5 13.7729 3.57866 13.6213 3.68016C13.4676 3.78297 13.3489 3.93287 13.2579 4.12997Z" fill="black"/>
</svg>
