<svg width="24" height="24" viewBox="0 0 24 24" fill="none" xmlns="http://www.w3.org/2000/svg">
<path fill-rule="evenodd" clip-rule="evenodd" d="M2.5 4C2.5 3.72386 2.72386 3.5 3 3.5H10.3075C10.5836 3.5 10.8075 3.72386 10.8075 4V11.9551C10.8075 12.2313 10.5836 12.4551 10.3075 12.4551C10.0313 12.4551 9.80746 12.2313 9.80746 11.9551V4.5H3.5V20.5H9.80746V13.9167C9.80746 13.6405 10.0313 13.4167 10.3075 13.4167H13.2463V4C13.2463 3.72386 13.4701 3.5 13.7463 3.5H21C21.1326 3.5 21.2598 3.55268 21.3536 3.64645C21.4473 3.74021 21.5 3.86739 21.5 4V13.9167C21.5 14.1928 21.2761 14.4167 21 14.4167H15.7612C15.4851 14.4167 15.2612 14.1928 15.2612 13.9167C15.2612 13.6405 15.4851 13.4167 15.7612 13.4167H20.5V4.5H14.2463V13.9167C14.2463 14.1928 14.0224 14.4167 13.7463 14.4167H10.8075V21C10.8075 21.2761 10.5836 21.5 10.3075 21.5H3C2.72386 21.5 2.5 21.2761 2.5 21V4Z" fill="black"/>
</svg>
