<svg width="24" height="24" viewBox="0 0 24 24" fill="none" xmlns="http://www.w3.org/2000/svg">
<path fill-rule="evenodd" clip-rule="evenodd" d="M14.8258 7.9145C14.1133 7.58592 13.2314 7.48588 12.6377 7.50154L12.6245 7.50189L3 7.50171C2.72386 7.50171 2.5 7.27786 2.5 7.00171C2.5 6.72557 2.72386 6.50171 3 6.50171H12.6181C13.3101 6.48435 14.3529 6.59522 15.2446 7.0064C15.9547 7.33386 16.6139 7.87961 16.8696 8.72418L20.7572 6.56462C20.9121 6.4786 21.1009 6.48094 21.2536 6.57078C21.4063 6.66063 21.5 6.82456 21.5 7.00171V16.8204C21.5 17.0015 21.402 17.1685 21.2439 17.2568C21.0857 17.3452 20.8922 17.3411 20.7379 17.2462L16.9816 14.934V16.142C16.9816 16.5858 16.7957 16.9712 16.3937 17.2114C16.041 17.4221 15.571 17.4899 15.049 17.4899C14.6347 17.4899 13.9568 17.4916 13.1438 17.4935C10.9091 17.4988 7.65335 17.5065 6.04382 17.4899C6.03075 17.4898 6.01768 17.4891 6.00466 17.488C5.41952 17.4359 4.55989 17.1934 3.83443 16.6233C3.08949 16.0379 2.5 15.1149 2.5 13.7677V10.2403C2.5 9.96415 2.72386 9.74029 3 9.74029C3.27614 9.74029 3.5 9.96415 3.5 10.2403V13.7677C3.5 14.7813 3.92683 15.4241 4.4523 15.837C4.98949 16.2592 5.6432 16.4481 6.07473 16.4902C7.68426 16.5064 10.9057 16.4988 13.1304 16.4935C13.9475 16.4916 14.6301 16.4899 15.049 16.4899C15.5188 16.4899 15.7651 16.4221 15.8808 16.353C15.9291 16.3241 15.9469 16.2997 15.9561 16.2824C15.9666 16.2628 15.9816 16.2222 15.9816 16.142V14.0391C15.9816 13.8579 16.0796 13.691 16.2378 13.6026C16.3959 13.5142 16.5895 13.5183 16.7437 13.6133L20.5 15.9254V7.85142L16.7244 9.94872C16.5696 10.0348 16.3807 10.0324 16.2281 9.94256C16.0754 9.85272 15.9816 9.68879 15.9816 9.51163C15.9816 8.72921 15.5226 8.23582 14.8258 7.9145Z" fill="black"/>
</svg>
