<svg width="24" height="24" viewBox="0 0 24 24" fill="none" xmlns="http://www.w3.org/2000/svg">
<path fill-rule="evenodd" clip-rule="evenodd" d="M12.3522 2.60789C12.4862 2.50182 12.6652 2.4716 12.8266 2.52775C15.1075 3.32102 19.7709 6.30166 19.9867 11.9292C20.109 15.1211 19.3784 17.2361 18.2592 18.6647C17.1447 20.0873 15.6939 20.7652 14.5054 21.1785C13.2758 21.6062 11.153 21.6717 9.1479 20.9751C7.1181 20.2699 5.15717 18.7633 4.37147 16.0075C2.91664 10.9047 6.06775 7.51761 7.84364 6.45491C8.0806 6.31312 8.38764 6.39026 8.52943 6.62722C8.67123 6.86418 8.59409 7.17122 8.35713 7.31301C6.82412 8.23037 4.04353 11.21 5.33315 15.7333C6.01068 18.1097 7.68289 19.4075 9.47607 20.0305C11.2939 20.662 13.184 20.5794 14.1769 20.234C15.2876 19.8477 16.5288 19.2519 17.472 18.048C18.4104 16.8502 19.1031 14.9861 18.9874 11.9675C18.8141 7.44757 15.4127 4.78426 13.2007 3.75898C13.2047 4.7114 13.0684 5.91782 12.6609 7.10442C12.1241 8.66767 11.0997 10.2392 9.26271 11.1059C9.07754 11.1932 8.85783 11.1589 8.70817 11.0192C8.55669 10.8778 8.35225 10.6372 8.18666 10.3404C8.0224 10.046 7.87232 9.65303 7.89303 9.22086C7.90625 8.94504 8.14057 8.73215 8.41639 8.74537C8.69222 8.75859 8.9051 8.99291 8.89189 9.26873C8.8834 9.44582 8.94621 9.64938 9.05992 9.85317C9.09509 9.9162 9.13283 9.9751 9.17052 10.0286C10.4876 9.28527 11.2724 8.06882 11.7151 6.77964C12.1961 5.37906 12.2561 3.93581 12.165 3.0512C12.1475 2.88116 12.2181 2.71395 12.3522 2.60789Z" fill="black"/>
</svg>
