<svg width="24" height="24" viewBox="0 0 24 24" fill="none" xmlns="http://www.w3.org/2000/svg">
<path fill-rule="evenodd" clip-rule="evenodd" d="M16.5261 4.30353C15.7464 3.6328 14.5882 3.44878 13.7321 3.51135C13.72 3.51224 13.7078 3.51268 13.6957 3.51268H7.77704L5.58246 17.8335H6.91305C7.18919 17.8335 7.41305 18.0574 7.41305 18.3335C7.41305 18.6097 7.18919 18.8335 6.91305 18.8335H5C4.85417 18.8335 4.71561 18.7699 4.62062 18.6592C4.52563 18.5486 4.48368 18.4019 4.50577 18.2578L6.8536 2.93695C6.891 2.6929 7.10093 2.51268 7.34783 2.51268H13.6779C14.6764 2.44346 16.1283 2.64227 17.1782 3.54542C18.285 4.49747 18.8125 6.11059 18.1342 8.56899C17.4434 11.0722 15.8691 12.3708 14.1785 12.9463C12.7621 13.4284 11.2809 13.3997 10.1844 13.1961L8.89995 20.5H11.4066L12.2902 15.4898C12.3345 15.2385 12.5611 15.0609 12.8157 15.0778C13.7425 15.1393 15.1534 14.9062 16.3292 14.0136C17.4817 13.1385 18.4669 11.5856 18.5 8.88181C18.5034 8.60569 18.73 8.38459 19.0061 8.38798C19.2823 8.39136 19.5034 8.61794 19.5 8.89406C19.4635 11.8667 18.3618 13.7259 16.9339 14.81C15.7078 15.7409 14.2851 16.0674 13.2005 16.0861L12.3185 21.0868C12.2763 21.3258 12.0687 21.5 11.8261 21.5H8.30435C8.15659 21.5 8.0164 21.4346 7.9214 21.3215C7.8264 21.2083 7.78632 21.0589 7.81191 20.9134L9.29017 12.5073C9.31444 12.3692 9.39554 12.2477 9.5137 12.1723C9.63185 12.097 9.77622 12.0746 9.91163 12.1108C10.8841 12.3705 12.4257 12.4866 13.8563 11.9996C15.257 11.5228 16.574 10.4638 17.1702 8.303C17.7788 6.09735 17.2556 4.93102 16.5261 4.30353Z" fill="black"/>
</svg>
