<svg width="24" height="24" viewBox="0 0 24 24" fill="none" xmlns="http://www.w3.org/2000/svg">
<path fill-rule="evenodd" clip-rule="evenodd" d="M5.83124 5.9731L10.0347 12.5804C10.3641 13.1053 10.9486 13.5418 11.6134 13.6762C12.2554 13.806 13.0057 13.6618 13.7243 12.9674C13.8688 12.8278 13.9612 12.6046 13.9774 12.2794C13.9936 11.9545 13.9298 11.5758 13.8133 11.2014C13.6974 10.8289 13.538 10.4882 13.3862 10.2447C13.3098 10.122 13.2432 10.0369 13.1946 9.98694C13.1872 9.97938 13.1809 9.97328 13.1757 9.96842C12.9613 9.89753 12.8169 9.68817 12.8345 9.45596C12.8543 9.19524 13.0716 8.99377 13.3331 8.99377H20.5495C20.7603 8.99377 20.9485 9.126 21.0199 9.32433C21.7003 11.2135 22.1107 15.5608 18.9834 18.6334C17.1999 20.3858 15.329 21.0922 13.8961 21.3562C13.1816 21.4878 12.5774 21.5092 12.1481 21.4971C11.9333 21.491 11.7618 21.4766 11.6415 21.4632C11.5813 21.4564 11.5338 21.45 11.5001 21.445C11.4833 21.4425 11.4699 21.4403 11.46 21.4387L11.4478 21.4366L11.4438 21.4359L11.4423 21.4357C11.442 21.4356 11.4411 21.4354 11.5313 20.9436L11.4411 21.4354C11.2806 21.406 11.1445 21.3001 11.0766 21.1517C11.0087 21.0033 11.0175 20.8311 11.1001 20.6904L13.4481 16.6928C12.9793 16.7761 12.4488 16.8134 11.9095 16.7902C10.7247 16.7391 9.35044 16.3866 8.5675 15.4109C7.8988 14.5776 6.68877 12.6986 5.66232 11.0576C5.1452 10.2309 4.66874 9.45493 4.32162 8.88571C4.28557 8.8266 4.25091 8.76971 4.21774 8.71522C3.62263 10.0762 3.26351 12.0431 3.68004 14.0196C4.15618 16.279 5.65273 18.5873 9.07877 20.0228L10.2054 18.0306C10.3413 17.7903 10.6464 17.7056 10.8868 17.8415C11.1271 17.9775 11.2118 18.2825 11.0759 18.5229L9.734 20.8956C9.6122 21.111 9.35115 21.2049 9.12005 21.1165C5.10148 19.5784 3.26758 16.9119 2.70153 14.2258C2.14347 11.5777 2.82512 8.94856 3.75882 7.433C3.85036 7.28441 4.01276 7.1943 4.18728 7.19527C4.36181 7.19623 4.5232 7.28813 4.61309 7.43773L4.65214 7.50258L4.76442 7.68851C4.86183 7.84957 5.00251 8.08157 5.17539 8.36506C5.5212 8.93214 5.99559 9.70475 6.51012 10.5273C7.54696 12.1849 8.72341 14.0074 9.34743 14.785C9.8572 15.4203 10.8638 15.7442 11.9526 15.7911C12.4815 15.8139 12.9947 15.769 13.4188 15.6801C13.8599 15.5876 14.1445 15.46 14.2674 15.36C14.4551 15.2072 14.7251 15.2108 14.9087 15.3683C15.0923 15.5259 15.1367 15.7923 15.0142 16.001L12.3717 20.5C12.7245 20.4993 13.184 20.4705 13.715 20.3727C14.982 20.1393 16.662 19.5124 18.2825 17.9201C20.8565 15.3912 20.7173 11.819 20.1861 9.99377H14.3935C14.5351 10.264 14.6662 10.5767 14.7682 10.9043C14.9068 11.3499 15 11.8507 14.9761 12.3291C14.9523 12.8072 14.8078 13.311 14.4192 13.6865C13.47 14.6038 12.3878 14.853 11.4153 14.6564C10.4662 14.4645 9.65478 13.8554 9.18854 13.1133C9.18825 13.1129 9.18795 13.1124 9.18765 13.1119L4.76551 6.16092C4.63931 5.96254 4.66837 5.70303 4.83533 5.53748C6.19898 4.18537 8.61695 2.73807 11.4165 2.52638C14.2525 2.31195 17.4187 3.37134 20.2047 6.93197C20.3225 7.08257 20.3442 7.2872 20.2604 7.4591C20.1766 7.63101 20.0021 7.74008 19.8109 7.74008L12.7648 7.74007C12.7574 7.74007 12.75 7.73991 12.7426 7.73958C11.9378 7.70385 10.8287 7.7379 9.62487 8.77352C9.41553 8.95361 9.09984 8.92991 8.91975 8.72057C8.73965 8.51124 8.76336 8.19554 8.97269 8.01545C10.4466 6.7474 11.8525 6.69994 12.7758 6.74007L18.7375 6.74008C16.3335 4.08731 13.7599 3.35204 11.4919 3.52354C9.16076 3.6998 7.09924 4.83925 5.83124 5.9731Z" fill="black"/>
</svg>
