<svg width="24" height="24" viewBox="0 0 24 24" fill="none" xmlns="http://www.w3.org/2000/svg">
<path fill-rule="evenodd" clip-rule="evenodd" d="M15.2957 2.50196C15.4081 2.49198 15.5205 2.52028 15.6148 2.58229L20.2748 5.64791C20.4154 5.74039 20.5 5.89736 20.5 6.06563V20.2832C20.5 20.5457 20.2969 20.7635 20.0351 20.782L9.83505 21.4988C9.6967 21.5085 9.56052 21.4603 9.45906 21.3657C9.35761 21.2712 9.3 21.1387 9.3 21V10.0088C9.3 9.75099 9.4961 9.53542 9.7528 9.51108L10.5928 9.43144C10.7876 9.41297 10.9752 9.5098 11.073 9.67924L15.4505 17.2628L15.62 17.2449V9.69027C15.62 9.41412 15.8439 9.19027 16.12 9.19027C16.3961 9.19027 16.62 9.41412 16.62 9.69027V17.6947C16.62 17.9504 16.427 18.165 16.1727 18.1919L15.2327 18.2915C15.0361 18.3123 14.8458 18.2154 14.747 18.0442L10.3675 10.4573L10.3 10.4637V20.4636L19.5 19.8171V6.33519L15.2107 3.51346L3.5 4.5544V16.9518L5.82 19.6512V7.10625C5.82 6.84565 6.02016 6.62874 6.27993 6.60786L16.0799 5.81992C16.3552 5.79779 16.5963 6.00299 16.6184 6.27825C16.6405 6.5535 16.4353 6.79458 16.1601 6.81671L6.82 7.56766V21C6.82 21.2091 6.68987 21.3961 6.49379 21.4688C6.29771 21.5415 6.07711 21.4845 5.94081 21.3259L2.62081 17.4631C2.54286 17.3724 2.5 17.2568 2.5 17.1372V4.09688C2.5 3.83789 2.69776 3.62177 2.95573 3.59884L15.2957 2.50196Z" fill="black"/>
</svg>
