<svg width="24" height="24" viewBox="0 0 24 24" fill="none" xmlns="http://www.w3.org/2000/svg">
<path fill-rule="evenodd" clip-rule="evenodd" d="M14.1867 4.97711C13.6529 4.65748 12.9418 4.46157 11.9884 4.50632C10.5951 4.57171 9.70504 5.06646 9.13085 5.71009C8.5454 6.36633 8.24831 7.22317 8.1379 8.06501C8.10199 8.33881 7.85093 8.53166 7.57713 8.49575C7.30333 8.45984 7.11048 8.20877 7.14639 7.93497C7.27362 6.96491 7.6247 5.89621 8.38463 5.04438C9.15581 4.17994 10.3083 3.58408 11.9415 3.50742C13.0612 3.45487 13.9733 3.6838 14.7004 4.11915C15.4259 4.55357 15.9345 5.17384 16.2808 5.85254C16.803 6.87575 16.9695 8.05491 16.9614 9.03081C17.1943 8.96358 17.444 8.92118 17.6918 8.92742C17.9949 8.93505 18.3248 9.01687 18.605 9.24733C18.8876 9.47979 19.0656 9.81902 19.145 10.2388C19.3147 11.1371 18.8982 11.7869 18.3701 12.1929C18.0713 12.4225 17.7286 12.584 17.4098 12.6913C17.8699 13.5935 19.0124 15.0385 21.1738 15.8402C21.391 15.9207 21.5244 16.1398 21.4963 16.3697C21.4681 16.5996 21.2858 16.7801 21.0556 16.8058C20.3883 16.8806 18.6857 17.2864 17.3789 18.272C15.6212 19.5976 14.5402 20.34 12.5991 20.4911C11.7526 20.557 10.8183 20.245 10.039 19.8787C9.25361 19.5096 8.55312 19.0505 8.13526 18.7302C7.56491 18.3447 6.61996 17.7856 5.64037 17.3611C5.14742 17.1475 4.6569 16.9729 4.20844 16.8698C3.77258 16.7695 3.40967 16.7446 3.13441 16.7924C3.11945 16.7953 3.10464 16.7981 3.09 16.8008C2.82014 16.8502 2.56087 16.6729 2.50899 16.4035C2.45711 16.1341 2.63199 15.8732 2.9009 15.8189C2.91773 15.8155 2.93463 15.8123 2.9516 15.8092C3.48778 15.7038 4.33281 15.402 5.11367 14.8321C5.8076 14.3257 6.43452 13.6205 6.76542 12.6666C6.39611 12.5227 5.97647 12.3178 5.61042 12.0548C5.09755 11.6862 4.53211 11.0833 4.64049 10.266C4.72841 9.60292 5.04557 9.16661 5.51066 8.98044C5.92835 8.81325 6.35721 8.89368 6.61883 8.99915C6.87494 9.1024 6.99886 9.39372 6.89561 9.64983C6.79236 9.90595 6.50104 10.0299 6.24492 9.92662C6.133 9.8815 5.98403 9.8681 5.88228 9.90883C5.84049 9.92556 5.79743 9.95424 5.75622 10.0137C5.71244 10.077 5.65896 10.1927 5.63182 10.3974C5.60012 10.6365 5.75258 10.9255 6.19399 11.2427C6.61132 11.5426 7.14972 11.7615 7.51561 11.8668C7.77151 11.9404 7.92483 12.2016 7.86432 12.4609C7.52269 13.9248 6.64222 14.9546 5.70319 15.6399C5.48552 15.7987 5.26356 15.94 5.04266 16.0648C5.37588 16.1721 5.71139 16.302 6.03797 16.4436C7.09244 16.9005 8.09859 17.4972 8.70856 17.9107C8.71691 17.9164 8.72508 17.9223 8.73308 17.9284C9.09886 18.2101 9.74402 18.6352 10.4643 18.9737C11.1984 19.3186 11.9391 19.5395 12.5215 19.4941C14.1523 19.3672 15.0324 18.7891 16.7767 17.4736C17.638 16.824 18.6315 16.4004 19.4681 16.1412C17.4724 14.9878 16.507 13.3491 16.2488 12.4914C16.2071 12.3529 16.2275 12.2031 16.3046 12.0807C16.3817 11.9583 16.508 11.8753 16.651 11.8532C16.9698 11.8037 17.4271 11.6564 17.7606 11.4001C18.0718 11.1608 18.2448 10.8607 18.1624 10.4245C18.1156 10.1771 18.0307 10.0698 17.9698 10.0197C17.9064 9.96753 17.8121 9.93077 17.6667 9.9271C17.3524 9.91919 16.9513 10.0715 16.6682 10.24C16.5044 10.3376 16.2993 10.3334 16.1395 10.2293C15.9797 10.1253 15.8931 9.93934 15.9161 9.75003C16.0313 8.80255 15.9542 7.41248 15.3901 6.30708C15.1122 5.76252 14.7221 5.29767 14.1867 4.97711Z" fill="black"/>
</svg>
