<svg width="24" height="24" viewBox="0 0 24 24" fill="none" xmlns="http://www.w3.org/2000/svg">
<path fill-rule="evenodd" clip-rule="evenodd" d="M18.6945 5.03629C20.5705 6.88631 21.5001 9.42299 21.5 11.5144C21.4998 16.8041 18.3104 21.5 13.5519 21.5C10.8736 21.5 9.15366 20.5087 8.07566 19.229C7.01497 17.9699 6.6132 16.4773 6.46364 15.5109C6.4276 15.2781 6.55903 15.0517 6.77911 14.9675C9.2346 14.0281 11.5488 14.1707 13.286 14.6464C11.0186 12.495 8.30722 12.4232 6.72628 12.5923C6.47757 12.6189 6.24746 12.4576 6.18763 12.2147C6.1278 11.9719 6.25665 11.7221 6.48926 11.6302C8.90198 10.6762 10.9806 10.5197 12.6624 10.7695C10.3395 9.59715 8.04984 9.3783 6.6465 9.30351C6.41487 9.29117 6.22215 9.12114 6.18103 8.89285C6.13991 8.66457 6.2612 8.43798 6.47397 8.34559C8.88424 7.29902 11.3027 7.14952 13.3353 7.41617C15.358 7.68151 17.0347 8.36395 17.9683 9.02537C18.1937 9.185 18.2469 9.49707 18.0873 9.7224C17.9277 9.94773 17.6156 10.001 17.3903 9.84136C16.616 9.29288 15.1023 8.65654 13.2053 8.40767C11.9434 8.24214 10.5279 8.25028 9.06621 8.56141C11.3253 8.95564 14.2495 9.94562 16.7157 12.5759C16.8995 12.7719 16.8955 13.0782 16.7066 13.2693C16.5177 13.4605 16.2115 13.4681 16.0133 13.2866C15.0545 12.4085 12.9466 11.3457 9.8736 11.7534C11.6916 12.1475 13.7283 13.1691 15.3412 15.5404C15.4707 15.7308 15.4534 15.9849 15.2994 16.1561C15.1454 16.3272 14.8945 16.3711 14.6916 16.2623C13.2829 15.5075 10.5471 14.7518 7.52562 15.762C7.7019 16.6001 8.07419 17.6751 8.84046 18.5847C9.71937 19.6281 11.1542 20.5 13.5519 20.5C17.5225 20.5 20.4998 16.5214 20.5 11.5144C20.5001 9.68571 19.6744 7.407 17.9924 5.74832C16.3299 4.10895 13.814 3.05778 10.3677 3.68229C8.05158 4.102 6.45367 5.10184 5.38669 6.36841C4.31472 7.64092 3.75258 9.21422 3.56877 10.8138C3.38479 12.4149 3.5829 14.0203 4.00877 15.3283C4.4423 16.6597 5.07972 17.5897 5.69583 17.9572C5.933 18.0986 6.0106 18.4055 5.86916 18.6427C5.72772 18.8799 5.4208 18.9575 5.18363 18.816C4.25788 18.264 3.51899 17.054 3.0579 15.6379C2.58916 14.1982 2.37436 12.4484 2.57531 10.6997C2.77643 8.94937 3.39708 7.17807 4.6219 5.72414C5.8517 4.26428 7.66459 3.15584 10.1894 2.69831C13.954 2.01613 16.7989 3.16697 18.6945 5.03629Z" fill="black"/>
</svg>
